<svg xmlns="http://www.w3.org/2000/svg" width="207" height="84" fill="none" viewBox="0 0 207 84">
  <mask id="a" width="207" height="52" x="0" y="16" maskUnits="userSpaceOnUse" style="mask-type:luminance">
    <path fill="#fff" d="M207 16H0v52h207V16Z"/>
  </mask>
  <g mask="url(#a)">
    <path fill="#fff" d="M182.733 30.01v22.177h3.067V26.95c-.417.003-.83.097-1.208.275-.374.161-.719.38-1.023.65-.3.28-.525.63-.651 1.02a4.63 4.63 0 0 0-.185 1.116Zm-51.334-1.76a1.485 1.485 0 0 0-.827-.276 2.634 2.634 0 0 0-.828.09 2.543 2.543 0 0 0-1.103.826 1.808 1.808 0 0 0-.276 1.39c-.009.274.089.541.276.743.107.247.305.443.551.55a1.86 1.86 0 0 0 1.209.372h.276a2.51 2.51 0 0 0 1.102-.55c.32-.296.546-.679.651-1.101a2.633 2.633 0 0 0-.093-1.206 3.739 3.739 0 0 0-.938-.839Zm16.181 6.4a9.018 9.018 0 0 0-6.231.466 7.637 7.637 0 0 0-2.604 1.948v-9.082a3.034 3.034 0 0 0-2.138.928c-.568.57-.9 1.33-.929 2.133v21.246h3.067v-2.411a8.106 8.106 0 0 0 2.231 1.761 9.213 9.213 0 0 0 4.094 1.021 15.105 15.105 0 0 0 2.044-.184c1.862-.372 3.442-1.393 4.744-2.783a9.345 9.345 0 0 0 2.325-5.754 9.534 9.534 0 0 0-1.768-5.936 8.403 8.403 0 0 0-4.835-3.352Zm2.883 11.598a5.816 5.816 0 0 1-2.79 2.785 6.183 6.183 0 0 1-4.462.369 5.677 5.677 0 0 1-3.443-2.598 6.239 6.239 0 0 1-.929-3.897 6.348 6.348 0 0 1 1.588-3.72 6.445 6.445 0 0 1 3.443-1.95 4.858 4.858 0 0 1 1.208-.093 6.781 6.781 0 0 1 3.255.826 5.805 5.805 0 0 1 2.51 3.06 5.89 5.89 0 0 1 .373 2.504 8.224 8.224 0 0 1-.745 2.692l-.008.022Zm27.898-18.092a1.602 1.602 0 0 0-1.103-.185 1.932 1.932 0 0 0-1.104.463 2.147 2.147 0 0 0-.651.927c-.094.397-.094.81 0 1.208.104.447.369.839.745 1.101.338.287.765.451 1.209.465h.372a1.92 1.92 0 0 0 .745-.371c.184-.188.462-.372.552-.65.17-.211.266-.472.274-.743a2.53 2.53 0 0 0-.092-.826 1.891 1.891 0 0 0-.373-.743 1.001 1.001 0 0 0-.574-.646Zm25.761-.185v9.082a7.614 7.614 0 0 0-4.557-2.598 9.857 9.857 0 0 0-4.651.275 8.853 8.853 0 0 0-3.905 2.505 9.922 9.922 0 0 0-2.047 3.618 10.186 10.186 0 0 0-.276 4.082 9.056 9.056 0 0 0 1.396 3.712 9.998 9.998 0 0 0 2.788 2.783 9.358 9.358 0 0 0 4.745 1.299 9.25 9.25 0 0 0 3.533-.743 7.02 7.02 0 0 0 2.789-2.133v2.41h3.07V31.018a2.889 2.889 0 0 0-.276-1.206 3.877 3.877 0 0 0-.651-1.02c-.28-.3-.633-.523-1.023-.65a2.007 2.007 0 0 0-.935-.17Zm0 15.772a6.358 6.358 0 0 1-.651 2.598 6.035 6.035 0 0 1-1.675 2.042 6.728 6.728 0 0 1-2.51 1.101 5.645 5.645 0 0 1-2.791-.094 6.265 6.265 0 0 1-3.161-1.948 6.44 6.44 0 0 1-1.395-3.616 6.81 6.81 0 0 1 .929-3.806 7.534 7.534 0 0 1 1.674-1.762 6.677 6.677 0 0 1 2.232-.927 5.678 5.678 0 0 1 2.791.09 6.525 6.525 0 0 1 2.51 1.3 6.411 6.411 0 0 1 1.675 2.226c.304.895.43 1.841.372 2.785v.011ZM84.985 46.804l-1.023-.55-.185.371a5.998 5.998 0 0 1-1.58 1.855 6.273 6.273 0 0 1-6.897.372 5.822 5.822 0 0 1-2.51-2.876 6.568 6.568 0 0 1-.466-2.692 6.327 6.327 0 0 1 .651-2.598 5.69 5.69 0 0 1 2.51-2.597 5.635 5.635 0 0 1 2.698-.74 5.902 5.902 0 0 1 2.791.462 5.098 5.098 0 0 1 2.79 2.597l.184.465.372-.275 1.396-.743.828-.465-.276-.462a7.333 7.333 0 0 0-2.698-3.154 9.538 9.538 0 0 0-10.879.462 9.187 9.187 0 0 0-3.349 5.661 9.638 9.638 0 0 0 1.211 6.402 8.832 8.832 0 0 0 2.323 2.598 8.282 8.282 0 0 0 3.164 1.483 11.45 11.45 0 0 0 2.51.275 9.981 9.981 0 0 0 4-.826 7.991 7.991 0 0 0 3.905-3.712l.185-.369-.372-.187-1.283-.757Zm18.053-10.298v.65a8.233 8.233 0 0 0-4.094-2.505 9.12 9.12 0 0 0-6.788.927 9.197 9.197 0 0 0-4.184 5.474 9.282 9.282 0 0 0 .65 6.682 9.89 9.89 0 0 0 3.349 3.71 8.89 8.89 0 0 0 4.835 1.392 8.45 8.45 0 0 0 3.44-.742 7.049 7.049 0 0 0 2.792-2.133v2.41h3.067V34.758h-3.067v1.748Zm-.651 9.742a6.532 6.532 0 0 1-2.698 2.785 6.44 6.44 0 0 1-4.557.369c-1.49-.369-2.698-1.376-3.533-2.689-1.58-2.507-1.104-5.939 1.023-7.887a6.013 6.013 0 0 1 2.974-1.483 5.284 5.284 0 0 1 1.21-.094c1.108 0 2.196.284 3.162.825a6.364 6.364 0 0 1 2.51 2.692 6.65 6.65 0 0 1 .551 2.692 5.592 5.592 0 0 1-.651 2.782l.009.008Zm22.317-8.072a5.992 5.992 0 0 0-2.882-3.154 7.969 7.969 0 0 0-5.489-.55 5.712 5.712 0 0 0-3.161 1.948v-1.764h-3.068v17.627h3.068V44.12c0-1.208 0-2.413.372-3.525a4.087 4.087 0 0 1 2.047-2.598c1.103-.55 2.51-.826 3.718-.55a4.42 4.42 0 0 1 1.396.55c.386.292.73.635 1.023 1.02.552 1.019.652 2.227.652 3.155v10.11h3.067V41.708a14.907 14.907 0 0 0-.743-3.531Zm4.463-3.526h-.465v17.627h3.069V34.65h-2.604Zm39.707 3.62v5.658c0 1.67-.373 2.97-1.023 3.99a3.795 3.795 0 0 1-1.299 1.115 4.626 4.626 0 0 1-1.584.55 5.399 5.399 0 0 1-3.346-.371 3.334 3.334 0 0 1-1.58-1.948 6.351 6.351 0 0 1-.276-2.32V34.645h-3.065v10.596a9.531 9.531 0 0 0 .552 3.247 6.353 6.353 0 0 0 2.976 3.435 7.926 7.926 0 0 0 3.533.825c.692 0 1.38-.093 2.047-.275a5.706 5.706 0 0 0 3.161-1.948v1.761h3.071V34.66h-3.071l-.096 3.61Zm7.629-3.62h-.652v17.627h3.068V34.65h-2.416ZM26.04 57.288a15.996 15.996 0 0 1-7.172-1.764 15.515 15.515 0 0 1-5.507-4.946 15.468 15.468 0 0 1-2.583-6.929c-.27-2.49.082-5.007 1.023-7.328a16.291 16.291 0 0 1 4.278-6.033 14.26 14.26 0 0 1 6.601-3.245 15.508 15.508 0 0 1 7.448.185 15.194 15.194 0 0 1 6.418 3.619l9.299-5.752a25.495 25.495 0 0 0-13.204-8.256 26.048 26.048 0 0 0-15.625.743A25.984 25.984 0 0 0 4.65 27.137 25.781 25.781 0 0 0 0 41.981a26.452 26.452 0 0 0 4.65 14.845 26.224 26.224 0 0 0 12.368 9.558 26.15 26.15 0 0 0 15.595.75 26.101 26.101 0 0 0 13.233-8.266l-9.299-5.752a15.345 15.345 0 0 1-10.506 4.172Z"/>
    <path fill="#fff" d="M56.54 41.98a26.947 26.947 0 0 1-3.16 12.527l-9.103-5.661a14.62 14.62 0 0 0 1.58-6.866 15.803 15.803 0 0 0-1.58-6.864l9.103-5.66a26.945 26.945 0 0 1 3.16 12.524Z"/>
  </g>
</svg>
