<svg width="219" height="84" viewBox="0 0 219 84" fill="none" xmlns="http://www.w3.org/2000/svg">
<g clip-path="url(#clip0_32_753)">
<path d="M3.77057 28.744H27.5026C27.5943 28.744 27.6753 28.6846 27.7023 28.5983C27.9019 27.9319 28.1205 27.2897 28.3471 26.6719H53.2204C53.2798 26.6719 53.3364 26.6422 53.3688 26.5937C53.4012 26.5424 53.4093 26.4803 53.385 26.4264C53.2015 25.9542 53.0046 25.4902 52.7887 25.0342C52.759 24.9721 52.697 24.9317 52.6295 24.9317H5.13848C5.05754 24.9317 4.98469 24.9775 4.94962 25.0504C4.4235 26.1862 3.98372 27.3599 3.63027 28.5605C3.61948 28.6037 3.62758 28.6523 3.65456 28.6873C3.67884 28.7224 3.72201 28.744 3.76787 28.744H3.77057ZM2.41615 36.4442H26.0268C26.1212 36.4442 26.1968 36.3741 26.2075 36.2823C26.3182 35.222 26.4612 34.1914 26.6365 33.1931C26.6446 33.1391 26.6284 33.0852 26.5961 33.0447C26.561 33.0042 26.5097 32.9826 26.4558 32.9826H2.80197C2.71294 32.9826 2.63739 33.0447 2.6239 33.1337C2.45932 34.1671 2.33251 35.2058 2.23808 36.2473C2.23268 36.2958 2.24887 36.3471 2.28395 36.3849C2.31902 36.4226 2.36759 36.4442 2.41615 36.4442ZM26.7768 50.5847C26.6581 49.9587 26.5502 49.3301 26.4558 48.7015C26.4396 48.5935 26.3505 48.5153 26.2426 48.5126H2.632C2.57803 48.5126 2.52947 48.5342 2.4944 48.5747C2.46202 48.6151 2.44583 48.6664 2.45392 48.7176C2.54026 49.3652 2.63739 49.9992 2.74801 50.6198C2.7669 50.725 2.85863 50.8005 2.96386 50.8005H26.5988C26.6527 50.8005 26.704 50.7763 26.7391 50.7358C26.7714 50.6926 26.7876 50.6387 26.7768 50.5874V50.5847ZM25.9728 43.3944C25.9458 42.5715 25.9377 41.7513 25.9431 40.9284C25.9458 40.8825 25.9269 40.8367 25.8919 40.8016C25.8595 40.7665 25.8136 40.7476 25.7651 40.7476H2.18682C2.08969 40.7449 2.00875 40.8232 2.00605 40.923C1.98716 41.5166 2.01684 42.7523 2.03573 43.4079C2.03843 43.5023 2.11937 43.5806 2.2165 43.5806H25.7893C25.8406 43.5806 25.8865 43.5617 25.9216 43.5266C25.9539 43.4915 25.9728 43.443 25.9701 43.3944H25.9728ZM6.97585 22.1257H30.5082C30.5838 22.1257 30.6566 22.0879 30.6971 22.0259C31.4741 20.8738 32.324 19.9322 33.2252 19.2334H47.5005C47.6085 19.2334 47.6435 19.0877 47.5491 19.0364C46.2406 18.343 44.7809 17.9869 43.3024 18.0004H14.4467C11.3305 18.0004 8.80783 19.4384 6.87603 21.9152C6.84365 21.9557 6.83825 22.007 6.85984 22.0528C6.88142 22.096 6.92459 22.1257 6.97585 22.1257ZM53.9813 54.2567H31.2745C31.1827 54.2567 31.1045 54.3161 31.0775 54.4024C30.8752 55.0689 30.6593 55.711 30.43 56.3288H4.53142C4.47206 56.3288 4.41541 56.3585 4.38303 56.4071C4.34795 56.4583 4.34256 56.5204 4.36414 56.5771C4.55031 57.0546 4.74996 57.5187 4.96041 57.9666C4.99009 58.0286 5.05215 58.0691 5.12229 58.0691H52.6106C52.6916 58.0691 52.7644 58.0232 52.7995 57.9504C53.3013 56.8765 53.7411 55.7002 54.1162 54.4402C54.1296 54.397 54.1216 54.3512 54.0946 54.3134C54.0676 54.2783 54.0244 54.2567 53.9813 54.2567ZM55.333 46.5592H32.7503C32.6586 46.5592 32.583 46.6294 32.5722 46.7184C32.4643 47.7544 32.3213 48.7824 32.1432 49.8077C32.1325 49.8616 32.1486 49.9156 32.1837 49.9561C32.2161 49.9965 32.2674 50.0208 32.3213 50.0208H54.9499C55.0389 50.0208 55.1144 49.9561 55.1279 49.867C55.2898 48.8606 55.4193 47.8246 55.5137 46.7562C55.5191 46.7049 55.503 46.6563 55.4679 46.6186C55.4355 46.5808 55.3842 46.5592 55.333 46.5592ZM31.9976 32.416C32.119 33.0312 32.2242 33.6598 32.3213 34.302C32.3348 34.4099 32.4265 34.4881 32.5372 34.4881H55.1171C55.1684 34.4881 55.2197 34.4666 55.252 34.4261C55.2871 34.3883 55.3033 34.3344 55.2952 34.2831C55.2116 33.6463 55.1117 33.0123 54.9984 32.381C54.9795 32.2784 54.8905 32.2029 54.7853 32.2002H32.1756C32.1217 32.2002 32.0704 32.2245 32.0353 32.2676C32.003 32.3081 31.9895 32.3621 31.9976 32.416ZM55.7107 39.5929C55.708 39.4957 55.6298 39.4202 55.5326 39.4175H32.9823C32.9338 39.4175 32.8852 39.4391 32.8528 39.4741C32.8178 39.5092 32.7989 39.5578 32.8016 39.609C32.8366 40.3888 32.834 41.5894 32.8313 42.0724C32.8313 42.1722 32.9122 42.2558 33.0093 42.2558H55.5596C55.6567 42.2558 55.7377 42.1749 55.7404 42.0778C55.7485 41.2495 55.7377 40.4185 55.7107 39.5929ZM50.776 60.8751H28.2716C28.1933 60.8751 28.1232 60.9128 28.08 60.9776C27.303 62.1269 26.4558 63.0686 25.5519 63.7701H10.2513C10.1434 63.7701 10.1083 63.9104 10.2027 63.9643C11.4681 64.6361 12.8819 65.0004 14.4467 65.0004H43.3024C46.4186 65.0004 48.9413 63.5623 50.8758 61.0855C50.9055 61.045 50.9082 60.9938 50.8893 60.9506C50.8677 60.9047 50.8245 60.8778 50.776 60.8751ZM98.9065 64.8709C85.168 64.8709 75.714 54.9205 75.714 41.4356C75.7113 27.9508 85.1653 18.0004 98.9065 18.0004C112.645 18.0004 122.164 27.9535 122.164 41.4356C122.164 54.9205 112.645 64.8709 98.9065 64.8709ZM98.9065 60.5675C107.977 60.5675 114.944 53.763 114.944 41.4356C114.944 29.1082 107.977 22.3038 98.9065 22.3038C89.8977 22.3038 82.8666 29.1082 82.8666 41.4356C82.8666 53.763 89.8977 60.5675 98.9065 60.5675ZM127.473 63.9077C129.456 61.1476 129.456 61.0828 129.456 59.0943V38.9318C129.456 37.0054 129.456 36.0422 127.22 34.0511L135.335 32.1894V39.5092C137.186 34.6932 139.806 31.9978 144.023 31.9978C145.237 31.9978 146.26 32.1894 146.899 32.5132V38.2276C145.877 37.9066 144.854 37.8391 143.513 37.8391C140.254 37.8391 137.316 39.1881 135.845 42.7199V59.0943C135.845 60.9533 135.845 60.9533 138.465 63.9077H127.473ZM171.443 63.9077C173.424 61.1476 173.424 61.0828 173.424 59.0943V44.9026C173.424 39.7655 170.486 36.8759 165.948 36.8759C162.305 36.8759 159.815 38.4192 158.215 41.4356V58.9648C158.215 60.8265 158.215 60.8265 160.198 63.9077H149.846C151.829 61.1476 151.829 61.0828 151.829 59.0943V39.5092C151.829 37.5855 151.829 36.107 149.589 34.0511L158.218 32.1894V37.7123C160.516 33.8595 164.224 31.6768 168.694 31.6768C175.531 31.6768 179.813 36.3012 179.813 43.2973V59.0296C179.813 60.8885 179.813 60.8885 181.728 63.9077H171.443ZM206.035 63.9077C208.016 61.1476 208.016 61.0828 208.016 59.0943V44.9026C208.016 39.7655 205.077 36.8759 200.539 36.8759C196.897 36.8759 194.407 38.4192 192.809 41.4356V58.9648C192.809 60.8265 192.809 60.8265 194.79 63.9077H184.44C186.42 61.1476 186.42 61.0828 186.42 59.0943V39.5092C186.42 37.5855 186.42 36.107 184.184 34.0511L192.809 32.1894V37.7123C195.108 33.8595 198.815 31.6768 203.286 31.6768C210.123 31.6768 214.405 36.3012 214.405 43.2973V59.0296C214.405 60.8885 214.405 60.8885 216.323 63.9077H206.035Z" fill="white"/>
</g>
<defs>
<clipPath id="clip0_32_753">
<rect width="214.322" height="47" fill="white" transform="translate(2 18)"/>
</clipPath>
</defs>
</svg>
