<svg width="123" height="84" viewBox="0 0 123 84" fill="none" xmlns="http://www.w3.org/2000/svg">
<g clip-path="url(#clip0_41_749)">
<path fill-rule="evenodd" clip-rule="evenodd" d="M0 46.9002V83.5076H25.8118V77.6502H6.46693V46.9002H0Z" fill="white"/>
<path fill-rule="evenodd" clip-rule="evenodd" d="M55.5606 52.2781L38.4981 83.6266H45.4787L49.4648 76.1103H67.7994L71.7306 83.6266H78.9325L58.9876 46.8997L55.5606 52.2781ZM58.6052 58.8131L65.3053 71.2647H51.9575L58.6052 58.8131Z" fill="white"/>
<path fill-rule="evenodd" clip-rule="evenodd" d="M120.301 56.2615C120.301 60.7584 117.778 63.059 115.042 64.4711C119.354 65.9358 122.35 68.3942 122.35 73.4141C122.35 80.0034 116.936 83.507 108.735 83.507H91.7025V46.8997H108.209C115.621 46.8997 120.301 50.5087 120.301 56.2615ZM113.833 57.3062C113.833 54.3249 111.521 52.5999 107.366 52.5999H98.0616V62.3261H106.895C111.047 62.3261 113.833 60.7052 113.833 57.3062ZM115.882 72.734C115.882 69.5977 113.412 67.7663 108.313 67.7663H98.0616V77.8078H108.784C113.202 77.8078 115.882 76.0823 115.882 72.734Z" fill="white"/>
<path fill-rule="evenodd" clip-rule="evenodd" d="M38.5068 0.000488281L58.8072 36.4004L79.1068 0.000488281H38.5068Z" fill="#D9D9D9"/>
</g>
<defs>
<clipPath id="clip0_41_749">
<rect width="122.5" height="84" fill="white"/>
</clipPath>
</defs>
</svg>
