<svg width="372" height="419" viewBox="0 0 372 419" fill="none" xmlns="http://www.w3.org/2000/svg">
<path d="M4.05176 368.365C4.90988 355.17 16.3024 345.168 29.498 346.026L344.902 366.533C358.098 367.391 368.1 378.784 367.242 391.979C366.384 405.175 354.991 415.177 341.796 414.319L26.3906 393.812C13.1951 392.953 3.19379 381.561 4.05176 368.365Z" fill="black" stroke="black" stroke-width="8"/>
<path d="M26.0417 383.428L26.6422 374.192L31.11 374.483C36.8918 374.858 40.4301 371.469 40.7498 366.551C41.0696 361.632 38.0001 357.813 32.2183 357.437L21.0301 356.71L19.3213 382.991L26.0417 383.428ZM27.3941 362.628L31.4113 362.89C33.5513 363.029 34.4723 364.521 34.3673 366.136C34.2623 367.75 33.1559 369.111 31.0159 368.972L26.9986 368.711L27.3941 362.628Z" fill="white"/>
<path d="M63.3721 378.277C63.286 376.122 62.3846 374.329 60.881 373.1C62.8241 372.209 64.0603 370.592 64.2238 368.077C64.5436 363.159 61.474 359.34 55.6922 358.964L44.1286 358.212L42.4198 384.493L49.1402 384.93L49.7261 375.919L53.9686 376.195C55.4328 376.29 56.4957 377.34 56.5882 378.816L56.987 385.44L63.7074 385.877L63.3721 378.277ZM54.8853 364.416C57.0253 364.555 57.9463 366.048 57.8413 367.662C57.7363 369.276 56.6299 370.637 54.4898 370.498L50.0972 370.212L50.4926 364.13L54.8853 364.416Z" fill="white"/>
<path d="M86.7872 387.378L87.1582 381.671L74.9188 380.875L75.2313 376.069L84.5422 376.675L84.9133 370.968L75.6023 370.363L75.8855 366.007L87.7119 366.776L88.083 361.07L69.5736 359.866L67.8649 386.147L86.7872 387.378Z" fill="white"/>
<path d="M98.8475 388.463C104.892 388.856 109.007 385.881 109.331 380.888C110.022 370.263 96.6239 373.954 96.9436 369.036C97.0193 367.872 98.1594 367.154 99.8113 367.261C101.876 367.396 103.082 368.568 103.122 370.267L109.43 370.677C109.689 365.528 106.039 361.936 100.182 361.555C94.8135 361.206 90.7765 364.148 90.486 368.616C89.7903 379.316 102.929 376.136 102.641 380.566C102.546 382.03 101.208 382.886 99.2186 382.757C96.9659 382.61 95.5569 381.086 95.5507 378.861L89.1682 378.446C88.9873 384.127 92.8029 388.07 98.8475 388.463Z" fill="white"/>
<path d="M118.582 389.445L120.291 363.164L113.571 362.727L111.862 389.008L118.582 389.445Z" fill="white"/>
<path d="M132.466 390.348C139.637 390.814 146.501 387.301 147.099 378.103C147.697 368.905 141.345 364.533 134.174 364.067L124.863 363.461L123.155 389.742L132.466 390.348ZM131.175 369.602L133.015 369.722C136.995 369.981 140.752 371.922 140.378 377.666C140.005 383.41 136.028 384.848 132.048 384.59L130.209 384.47L131.175 369.602Z" fill="white"/>
<path d="M168.585 392.696L168.956 386.989L156.717 386.193L157.029 381.388L166.34 381.993L166.711 376.286L157.4 375.681L157.684 371.326L169.51 372.095L169.881 366.388L151.372 365.185L149.663 391.466L168.585 392.696Z" fill="white"/>
<path d="M178.638 393.35L179.658 377.656L187.911 393.953L194.932 394.409L196.641 368.128L189.958 367.694L188.937 383.387L180.684 367.091L173.664 366.634L171.955 392.915L178.638 393.35Z" fill="white"/>
<path d="M211.653 395.496L212.991 374.922L220.5 375.41L220.871 369.703L199.17 368.293L198.799 373.999L206.308 374.487L204.97 395.062L211.653 395.496Z" fill="white"/>
<path d="M228.794 370.106C228.383 371.411 227.825 372.833 227.122 374.37C226.419 375.908 225.709 377.345 224.994 378.681L220.977 378.42C221.423 376.966 221.876 375.412 222.336 373.758C222.795 372.103 223.155 370.631 223.415 369.341L228.558 369.675L228.794 370.106Z" fill="white"/>
<path d="M238.502 397.544C244.547 397.937 248.661 394.962 248.986 389.968C249.677 379.343 236.278 383.034 236.598 378.116C236.674 376.952 237.814 376.234 239.466 376.342C241.531 376.476 242.736 377.648 242.777 379.347L249.084 379.757C249.343 374.609 245.694 371.016 239.837 370.635C234.468 370.286 230.431 373.228 230.14 377.696C229.445 388.396 242.584 385.216 242.296 389.646C242.2 391.111 240.863 391.966 238.873 391.837C236.62 391.69 235.211 390.166 235.205 387.941L228.823 387.526C228.642 393.208 232.457 397.151 238.502 397.544Z" fill="white"/>
<path d="M271.29 399.675C278.348 400.134 283.518 396.587 284.394 390.649L277.749 390.217C277.097 392.701 274.702 394.166 271.624 393.966C267.907 393.725 265.112 390.904 265.444 385.798C265.776 380.692 268.95 378.259 272.629 378.498C275.67 378.696 277.818 380.457 277.992 382.994L285.013 383.451C284.688 377.435 279.984 373.245 273.038 372.794C265.792 372.323 259.294 376.575 258.723 385.361C258.152 394.146 263.894 399.195 271.29 399.675Z" fill="white"/>
<path d="M305.105 401.572L305.476 395.866L294.062 395.124L295.4 374.549L288.68 374.112L286.971 400.393L305.105 401.572Z" fill="white"/>
<path d="M316.778 402.633C323.085 403.043 327.69 400.062 328.147 393.042L329.206 376.747L323.049 376.347L321.995 392.566C321.78 395.87 319.744 397.02 317.154 396.851C314.526 396.68 312.694 395.279 312.909 391.975L313.963 375.756L307.769 375.353L306.709 391.648C306.253 398.668 310.471 402.223 316.778 402.633Z" fill="white"/>
<path d="M342.594 404.01C348.188 404.374 352.463 401.824 352.795 396.718C353.012 393.376 351.122 391.142 348.895 390.017C350.413 389.286 351.999 387.504 352.16 385.026C352.448 380.596 348.808 378.022 344.115 377.717L333.227 377.009L331.518 403.29L342.594 404.01ZM339.46 382.617L343.064 382.851C345.317 382.998 346.122 383.955 346.034 385.307C345.946 386.658 345.024 387.503 342.922 387.366L339.167 387.122L339.46 382.617ZM338.806 392.679L342.823 392.94C345.639 393.123 346.702 394.173 346.59 395.9C346.477 397.627 345.292 398.454 342.477 398.271L338.459 398.01L338.806 392.679Z" fill="white"/>
<path d="M73.3279 318.946C72.9182 302.695 85.7601 289.189 102.011 288.779L314.526 283.422C330.778 283.012 344.284 295.854 344.693 312.105C345.103 328.356 332.261 341.862 316.01 342.272L103.495 347.63C87.2438 348.04 73.7376 335.198 73.3279 318.946Z" fill="white"/>
<path fill-rule="evenodd" clip-rule="evenodd" d="M314.728 291.419L102.213 296.777C90.3787 297.075 81.027 306.911 81.3254 318.745C81.6237 330.579 91.4591 339.931 103.293 339.632L315.809 334.275C327.643 333.976 336.994 324.141 336.696 312.307C336.398 300.472 326.562 291.121 314.728 291.419ZM102.011 288.779C85.7601 289.189 72.9182 302.695 73.3279 318.946C73.7376 335.198 87.2438 348.04 103.495 347.63L316.01 342.272C332.261 341.862 345.103 328.356 344.693 312.105C344.284 295.854 330.778 283.012 314.526 283.422L102.011 288.779Z" fill="black"/>
<path d="M108.371 331.221L108.02 317.305L114.389 331.07L119.128 330.95L124.757 316.883L125.108 330.799L131.277 330.644L130.613 304.316L123.354 304.499L116.52 321.532L108.836 304.865L101.539 305.049L102.203 331.377L108.371 331.221Z" fill="black"/>
<path d="M142.58 330.359L141.916 304.031L135.184 304.2L135.848 330.529L142.58 330.359Z" fill="black"/>
<path d="M153.855 330.075L153.459 314.353L163.145 329.84L170.179 329.663L169.515 303.335L162.82 303.504L163.216 319.225L153.53 303.738L146.497 303.915L147.16 330.243L153.855 330.075Z" fill="black"/>
<path d="M184.982 329.591C191.301 329.432 195.619 326.048 195.441 319.015L195.03 302.692L188.861 302.847L189.271 319.095C189.355 322.405 187.431 323.733 184.836 323.799C182.203 323.865 180.253 322.635 180.169 319.325L179.759 303.077L173.554 303.233L173.965 319.557C174.142 326.59 178.663 329.75 184.982 329.591Z" fill="black"/>
<path d="M211.87 328.612L211.35 308.001L218.872 307.811L218.728 302.094L196.989 302.642L197.133 308.359L204.655 308.17L205.175 328.781L211.87 328.612Z" fill="black"/>
<path d="M240.128 327.9L239.984 322.183L227.722 322.492L227.601 317.677L236.929 317.442L236.784 311.725L227.457 311.96L227.347 307.597L239.194 307.299L239.05 301.582L220.508 302.049L221.172 328.377L240.128 327.9Z" fill="black"/>
<path d="M252.237 327.895C258.292 327.743 262.122 324.409 261.996 319.407C261.728 308.763 248.716 313.645 248.592 308.718C248.563 307.552 249.633 306.735 251.288 306.693C253.357 306.641 254.663 307.699 254.856 309.388L261.175 309.229C260.97 304.078 257.012 300.828 251.144 300.976C245.766 301.111 242.01 304.405 242.123 308.881C242.393 319.6 255.192 315.251 255.304 319.689C255.341 321.156 254.086 322.128 252.093 322.178C249.836 322.235 248.296 320.844 248.089 318.629L241.695 318.79C242.026 324.464 246.181 328.048 252.237 327.895Z" fill="black"/>
<path d="M284.926 326.77L284.406 306.159L291.929 305.969L291.784 300.252L270.045 300.8L270.189 306.517L277.711 306.328L278.231 326.939L284.926 326.77Z" fill="black"/>
<path d="M306.21 326.535C314.033 326.337 319.681 320.474 319.486 312.726C319.29 304.978 313.354 299.407 305.531 299.605C297.632 299.804 291.947 305.668 292.142 313.416C292.337 321.164 298.311 326.734 306.21 326.535ZM306.028 320.819C301.928 320.922 298.949 317.685 298.837 313.247C298.725 308.809 301.538 305.426 305.637 305.323C309.699 305.22 312.679 308.457 312.791 312.895C312.903 317.333 310.09 320.716 306.028 320.819Z" fill="black"/>
<path d="M20.5035 91.3236V66.5994C20.5035 31.7301 33.6658 4 87.6688 4H94.0619C149.569 4 166.116 26.4697 166.116 65.4722V85.6874C166.116 113.042 151.826 125.817 139.867 129.95C152.653 134.084 169.877 144.229 169.877 172.71V221.783C169.877 261.161 148.892 289.643 97.0704 289.643H88.4209C32.9136 289.643 18.2471 261.161 18.2471 223.662V186.538H74.1304V219.153C74.1304 232.304 79.3953 240.119 92.4824 240.119C104.893 240.119 110.082 232.229 110.082 219.153V180.15C110.082 166.999 106.322 163.317 93.9867 163.317H60.5921V112.741H91.3542C103.764 112.741 107.826 108.608 107.826 95.532V70.8078C107.826 57.2809 104.065 50.5926 90.9782 50.5926C78.568 50.5926 74.1304 57.3561 74.1304 70.8078V91.3987L20.5035 91.3236Z" fill="#FD7962" stroke="black" stroke-width="8" stroke-miterlimit="10"/>
<path d="M265.792 7.66211C309.763 7.66211 345.436 43.3345 345.436 87.3062V206.335C345.436 250.307 309.763 285.98 265.792 285.98C221.82 285.98 186.147 250.307 186.147 206.335V87.3062C186.147 43.3345 221.82 7.66211 265.792 7.66211Z" fill="white"/>
<path d="M301.044 17.1729C302.425 17.1729 303.544 16.0536 303.544 14.6729C303.544 13.2921 302.425 12.1729 301.044 12.1729C299.663 12.1729 298.544 13.2921 298.544 14.6729C298.544 16.0536 299.663 17.1729 301.044 17.1729Z" fill="#FCF152"/>
<path d="M307.225 23.2734C308.605 23.2734 309.725 22.1541 309.725 20.7734C309.725 19.3927 308.605 18.2734 307.225 18.2734C305.844 18.2734 304.725 19.3927 304.725 20.7734C304.725 22.1541 305.844 23.2734 307.225 23.2734Z" fill="#FCF152"/>
<path d="M313.334 29.4463C314.715 29.4463 315.834 28.327 315.834 26.9463C315.834 25.5656 314.715 24.4463 313.334 24.4463C311.953 24.4463 310.834 25.5656 310.834 26.9463C310.834 28.327 311.953 29.4463 313.334 29.4463Z" fill="#FCF152"/>
<path d="M319.513 35.6196C320.893 35.6196 322.013 34.5003 322.013 33.1196C322.013 31.7389 320.893 30.6196 319.513 30.6196C318.132 30.6196 317.013 31.7389 317.013 33.1196C317.013 34.5003 318.132 35.6196 319.513 35.6196Z" fill="#FCF152"/>
<path d="M325.693 41.793C327.074 41.793 328.193 40.6737 328.193 39.293C328.193 37.9123 327.074 36.793 325.693 36.793C324.313 36.793 323.193 37.9123 323.193 39.293C323.193 40.6737 324.313 41.793 325.693 41.793Z" fill="#FCF152"/>
<path d="M331.874 47.9658C333.255 47.9658 334.374 46.8465 334.374 45.4658C334.374 44.0851 333.255 42.9658 331.874 42.9658C330.493 42.9658 329.374 44.0851 329.374 45.4658C329.374 46.8465 330.493 47.9658 331.874 47.9658Z" fill="#FCF152"/>
<path d="M338.053 54.1382C339.433 54.1382 340.553 53.0189 340.553 51.6382C340.553 50.2575 339.433 49.1382 338.053 49.1382C336.672 49.1382 335.553 50.2575 335.553 51.6382C335.553 53.0189 336.672 54.1382 338.053 54.1382Z" fill="#FCF152"/>
<path d="M288.684 17.1729C290.064 17.1729 291.184 16.0536 291.184 14.6729C291.184 13.2921 290.064 12.1729 288.684 12.1729C287.303 12.1729 286.184 13.2921 286.184 14.6729C286.184 16.0536 287.303 17.1729 288.684 17.1729Z" fill="#FCF152"/>
<path d="M294.865 23.2734C296.246 23.2734 297.365 22.1541 297.365 20.7734C297.365 19.3927 296.246 18.2734 294.865 18.2734C293.485 18.2734 292.365 19.3927 292.365 20.7734C292.365 22.1541 293.485 23.2734 294.865 23.2734Z" fill="#FCF152"/>
<path d="M301.044 29.4463C302.425 29.4463 303.544 28.327 303.544 26.9463C303.544 25.5656 302.425 24.4463 301.044 24.4463C299.663 24.4463 298.544 25.5656 298.544 26.9463C298.544 28.327 299.663 29.4463 301.044 29.4463Z" fill="#FCF152"/>
<path d="M307.225 35.6196C308.605 35.6196 309.725 34.5003 309.725 33.1196C309.725 31.7389 308.605 30.6196 307.225 30.6196C305.844 30.6196 304.725 31.7389 304.725 33.1196C304.725 34.5003 305.844 35.6196 307.225 35.6196Z" fill="#FCF152"/>
<path d="M313.334 41.793C314.715 41.793 315.834 40.6737 315.834 39.293C315.834 37.9123 314.715 36.793 313.334 36.793C311.953 36.793 310.834 37.9123 310.834 39.293C310.834 40.6737 311.953 41.793 313.334 41.793Z" fill="#FCF152"/>
<path d="M319.513 47.9658C320.893 47.9658 322.013 46.8465 322.013 45.4658C322.013 44.0851 320.893 42.9658 319.513 42.9658C318.132 42.9658 317.013 44.0851 317.013 45.4658C317.013 46.8465 318.132 47.9658 319.513 47.9658Z" fill="#FCF152"/>
<path d="M325.693 54.1382C327.074 54.1382 328.193 53.0189 328.193 51.6382C328.193 50.2575 327.074 49.1382 325.693 49.1382C324.313 49.1382 323.193 50.2575 323.193 51.6382C323.193 53.0189 324.313 54.1382 325.693 54.1382Z" fill="#FCF152"/>
<path d="M331.874 60.2373C333.255 60.2373 334.374 59.118 334.374 57.7373C334.374 56.3566 333.255 55.2373 331.874 55.2373C330.493 55.2373 329.374 56.3566 329.374 57.7373C329.374 59.118 330.493 60.2373 331.874 60.2373Z" fill="#FCF152"/>
<path d="M338.053 66.4102C339.433 66.4102 340.553 65.2909 340.553 63.9102C340.553 62.5295 339.433 61.4102 338.053 61.4102C336.672 61.4102 335.553 62.5295 335.553 63.9102C335.553 65.2909 336.672 66.4102 338.053 66.4102Z" fill="#FCF152"/>
<path d="M344.236 72.583C345.617 72.583 346.736 71.4637 346.736 70.083C346.736 68.7023 345.617 67.583 344.236 67.583C342.856 67.583 341.736 68.7023 341.736 70.083C341.736 71.4637 342.856 72.583 344.236 72.583Z" fill="#FCF152"/>
<path d="M276.322 17.1729C277.703 17.1729 278.822 16.0536 278.822 14.6729C278.822 13.2921 277.703 12.1729 276.322 12.1729C274.942 12.1729 273.822 13.2921 273.822 14.6729C273.822 16.0536 274.942 17.1729 276.322 17.1729Z" fill="#FCF152"/>
<path d="M282.504 23.2734C283.885 23.2734 285.004 22.1541 285.004 20.7734C285.004 19.3927 283.885 18.2734 282.504 18.2734C281.123 18.2734 280.004 19.3927 280.004 20.7734C280.004 22.1541 281.123 23.2734 282.504 23.2734Z" fill="#FCF152"/>
<path d="M288.684 29.4463C290.064 29.4463 291.184 28.327 291.184 26.9463C291.184 25.5656 290.064 24.4463 288.684 24.4463C287.303 24.4463 286.184 25.5656 286.184 26.9463C286.184 28.327 287.303 29.4463 288.684 29.4463Z" fill="#FCF152"/>
<path d="M294.865 35.6196C296.246 35.6196 297.365 34.5003 297.365 33.1196C297.365 31.7389 296.246 30.6196 294.865 30.6196C293.485 30.6196 292.365 31.7389 292.365 33.1196C292.365 34.5003 293.485 35.6196 294.865 35.6196Z" fill="#FCF152"/>
<path d="M301.044 41.793C302.425 41.793 303.544 40.6737 303.544 39.293C303.544 37.9123 302.425 36.793 301.044 36.793C299.663 36.793 298.544 37.9123 298.544 39.293C298.544 40.6737 299.663 41.793 301.044 41.793Z" fill="#FCF152"/>
<path d="M307.225 47.9658C308.605 47.9658 309.725 46.8465 309.725 45.4658C309.725 44.0851 308.605 42.9658 307.225 42.9658C305.844 42.9658 304.725 44.0851 304.725 45.4658C304.725 46.8465 305.844 47.9658 307.225 47.9658Z" fill="#FCF152"/>
<path d="M313.334 54.1382C314.715 54.1382 315.834 53.0189 315.834 51.6382C315.834 50.2575 314.715 49.1382 313.334 49.1382C311.953 49.1382 310.834 50.2575 310.834 51.6382C310.834 53.0189 311.953 54.1382 313.334 54.1382Z" fill="#FCF152"/>
<path d="M319.513 60.2373C320.893 60.2373 322.013 59.118 322.013 57.7373C322.013 56.3566 320.893 55.2373 319.513 55.2373C318.132 55.2373 317.013 56.3566 317.013 57.7373C317.013 59.118 318.132 60.2373 319.513 60.2373Z" fill="#FCF152"/>
<path d="M325.693 66.4102C327.074 66.4102 328.193 65.2909 328.193 63.9102C328.193 62.5295 327.074 61.4102 325.693 61.4102C324.313 61.4102 323.193 62.5295 323.193 63.9102C323.193 65.2909 324.313 66.4102 325.693 66.4102Z" fill="#FCF152"/>
<path d="M331.874 72.583C333.255 72.583 334.374 71.4637 334.374 70.083C334.374 68.7023 333.255 67.583 331.874 67.583C330.493 67.583 329.374 68.7023 329.374 70.083C329.374 71.4637 330.493 72.583 331.874 72.583Z" fill="#FCF152"/>
<path d="M338.053 78.7559C339.433 78.7559 340.553 77.6366 340.553 76.2559C340.553 74.8752 339.433 73.7559 338.053 73.7559C336.672 73.7559 335.553 74.8752 335.553 76.2559C335.553 77.6366 336.672 78.7559 338.053 78.7559Z" fill="#FCF152"/>
<path d="M344.236 84.9292C345.617 84.9292 346.736 83.8099 346.736 82.4292C346.736 81.0485 345.617 79.9292 344.236 79.9292C342.856 79.9292 341.736 81.0485 341.736 82.4292C341.736 83.8099 342.856 84.9292 344.236 84.9292Z" fill="#FCF152"/>
<path d="M264.036 17.1729C265.417 17.1729 266.536 16.0536 266.536 14.6729C266.536 13.2921 265.417 12.1729 264.036 12.1729C262.655 12.1729 261.536 13.2921 261.536 14.6729C261.536 16.0536 262.655 17.1729 264.036 17.1729Z" fill="#FCF152"/>
<path d="M270.141 23.2734C271.521 23.2734 272.641 22.1541 272.641 20.7734C272.641 19.3927 271.521 18.2734 270.141 18.2734C268.76 18.2734 267.641 19.3927 267.641 20.7734C267.641 22.1541 268.76 23.2734 270.141 23.2734Z" fill="#FCF152"/>
<path d="M276.322 29.4463C277.703 29.4463 278.822 28.327 278.822 26.9463C278.822 25.5656 277.703 24.4463 276.322 24.4463C274.942 24.4463 273.822 25.5656 273.822 26.9463C273.822 28.327 274.942 29.4463 276.322 29.4463Z" fill="#FCF152"/>
<path d="M282.504 35.6196C283.885 35.6196 285.004 34.5003 285.004 33.1196C285.004 31.7389 283.885 30.6196 282.504 30.6196C281.123 30.6196 280.004 31.7389 280.004 33.1196C280.004 34.5003 281.123 35.6196 282.504 35.6196Z" fill="#FCF152"/>
<path d="M288.684 41.793C290.064 41.793 291.184 40.6737 291.184 39.293C291.184 37.9123 290.064 36.793 288.684 36.793C287.303 36.793 286.184 37.9123 286.184 39.293C286.184 40.6737 287.303 41.793 288.684 41.793Z" fill="#FCF152"/>
<path d="M294.865 47.9658C296.246 47.9658 297.365 46.8465 297.365 45.4658C297.365 44.0851 296.246 42.9658 294.865 42.9658C293.485 42.9658 292.365 44.0851 292.365 45.4658C292.365 46.8465 293.485 47.9658 294.865 47.9658Z" fill="#FCF152"/>
<path d="M301.044 54.1382C302.425 54.1382 303.544 53.0189 303.544 51.6382C303.544 50.2575 302.425 49.1382 301.044 49.1382C299.663 49.1382 298.544 50.2575 298.544 51.6382C298.544 53.0189 299.663 54.1382 301.044 54.1382Z" fill="#FCF152"/>
<path d="M307.225 60.2373C308.605 60.2373 309.725 59.118 309.725 57.7373C309.725 56.3566 308.605 55.2373 307.225 55.2373C305.844 55.2373 304.725 56.3566 304.725 57.7373C304.725 59.118 305.844 60.2373 307.225 60.2373Z" fill="#FCF152"/>
<path d="M313.334 66.4102C314.715 66.4102 315.834 65.2909 315.834 63.9102C315.834 62.5295 314.715 61.4102 313.334 61.4102C311.953 61.4102 310.834 62.5295 310.834 63.9102C310.834 65.2909 311.953 66.4102 313.334 66.4102Z" fill="#FCF152"/>
<path d="M319.513 72.583C320.893 72.583 322.013 71.4637 322.013 70.083C322.013 68.7023 320.893 67.583 319.513 67.583C318.132 67.583 317.013 68.7023 317.013 70.083C317.013 71.4637 318.132 72.583 319.513 72.583Z" fill="#FCF152"/>
<path d="M325.693 78.7559C327.074 78.7559 328.193 77.6366 328.193 76.2559C328.193 74.8752 327.074 73.7559 325.693 73.7559C324.313 73.7559 323.193 74.8752 323.193 76.2559C323.193 77.6366 324.313 78.7559 325.693 78.7559Z" fill="#FCF152"/>
<path d="M331.874 84.9292C333.255 84.9292 334.374 83.8099 334.374 82.4292C334.374 81.0485 333.255 79.9292 331.874 79.9292C330.493 79.9292 329.374 81.0485 329.374 82.4292C329.374 83.8099 330.493 84.9292 331.874 84.9292Z" fill="#FCF152"/>
<path d="M338.053 91.1016C339.433 91.1016 340.553 89.9823 340.553 88.6016C340.553 87.2209 339.433 86.1016 338.053 86.1016C336.672 86.1016 335.553 87.2209 335.553 88.6016C335.553 89.9823 336.672 91.1016 338.053 91.1016Z" fill="#FCF152"/>
<path d="M344.236 97.2744C345.617 97.2744 346.736 96.1551 346.736 94.7744C346.736 93.3937 345.617 92.2744 344.236 92.2744C342.856 92.2744 341.736 93.3937 341.736 94.7744C341.736 96.1551 342.856 97.2744 344.236 97.2744Z" fill="#FCF152"/>
<path d="M251.677 17.1729C253.057 17.1729 254.177 16.0536 254.177 14.6729C254.177 13.2921 253.057 12.1729 251.677 12.1729C250.296 12.1729 249.177 13.2921 249.177 14.6729C249.177 16.0536 250.296 17.1729 251.677 17.1729Z" fill="#FCF152"/>
<path d="M257.853 23.2734C259.233 23.2734 260.353 22.1541 260.353 20.7734C260.353 19.3927 259.233 18.2734 257.853 18.2734C256.472 18.2734 255.353 19.3927 255.353 20.7734C255.353 22.1541 256.472 23.2734 257.853 23.2734Z" fill="#FCF152"/>
<path d="M264.036 29.4463C265.417 29.4463 266.536 28.327 266.536 26.9463C266.536 25.5656 265.417 24.4463 264.036 24.4463C262.655 24.4463 261.536 25.5656 261.536 26.9463C261.536 28.327 262.655 29.4463 264.036 29.4463Z" fill="#FCF152"/>
<path d="M270.141 35.6196C271.521 35.6196 272.641 34.5003 272.641 33.1196C272.641 31.7389 271.521 30.6196 270.141 30.6196C268.76 30.6196 267.641 31.7389 267.641 33.1196C267.641 34.5003 268.76 35.6196 270.141 35.6196Z" fill="#FCF152"/>
<path d="M276.322 41.793C277.703 41.793 278.822 40.6737 278.822 39.293C278.822 37.9123 277.703 36.793 276.322 36.793C274.942 36.793 273.822 37.9123 273.822 39.293C273.822 40.6737 274.942 41.793 276.322 41.793Z" fill="#FCF152"/>
<path d="M282.504 47.9658C283.885 47.9658 285.004 46.8465 285.004 45.4658C285.004 44.0851 283.885 42.9658 282.504 42.9658C281.123 42.9658 280.004 44.0851 280.004 45.4658C280.004 46.8465 281.123 47.9658 282.504 47.9658Z" fill="#FCF152"/>
<path d="M288.684 54.1382C290.064 54.1382 291.184 53.0189 291.184 51.6382C291.184 50.2575 290.064 49.1382 288.684 49.1382C287.303 49.1382 286.184 50.2575 286.184 51.6382C286.184 53.0189 287.303 54.1382 288.684 54.1382Z" fill="#FCF152"/>
<path d="M294.865 60.2373C296.246 60.2373 297.365 59.118 297.365 57.7373C297.365 56.3566 296.246 55.2373 294.865 55.2373C293.485 55.2373 292.365 56.3566 292.365 57.7373C292.365 59.118 293.485 60.2373 294.865 60.2373Z" fill="#FCF152"/>
<path d="M301.044 66.4102C302.425 66.4102 303.544 65.2909 303.544 63.9102C303.544 62.5295 302.425 61.4102 301.044 61.4102C299.663 61.4102 298.544 62.5295 298.544 63.9102C298.544 65.2909 299.663 66.4102 301.044 66.4102Z" fill="#FCF152"/>
<path d="M307.225 72.583C308.605 72.583 309.725 71.4637 309.725 70.083C309.725 68.7023 308.605 67.583 307.225 67.583C305.844 67.583 304.725 68.7023 304.725 70.083C304.725 71.4637 305.844 72.583 307.225 72.583Z" fill="#FCF152"/>
<path d="M313.334 78.7559C314.715 78.7559 315.834 77.6366 315.834 76.2559C315.834 74.8752 314.715 73.7559 313.334 73.7559C311.953 73.7559 310.834 74.8752 310.834 76.2559C310.834 77.6366 311.953 78.7559 313.334 78.7559Z" fill="#FCF152"/>
<path d="M319.513 84.9292C320.893 84.9292 322.013 83.8099 322.013 82.4292C322.013 81.0485 320.893 79.9292 319.513 79.9292C318.132 79.9292 317.013 81.0485 317.013 82.4292C317.013 83.8099 318.132 84.9292 319.513 84.9292Z" fill="#FCF152"/>
<path d="M325.693 91.1016C327.074 91.1016 328.193 89.9823 328.193 88.6016C328.193 87.2209 327.074 86.1016 325.693 86.1016C324.313 86.1016 323.193 87.2209 323.193 88.6016C323.193 89.9823 324.313 91.1016 325.693 91.1016Z" fill="#FCF152"/>
<path d="M331.874 97.2744C333.255 97.2744 334.374 96.1551 334.374 94.7744C334.374 93.3937 333.255 92.2744 331.874 92.2744C330.493 92.2744 329.374 93.3937 329.374 94.7744C329.374 96.1551 330.493 97.2744 331.874 97.2744Z" fill="#FCF152"/>
<path d="M338.053 103.375C339.433 103.375 340.553 102.256 340.553 100.875C340.553 99.4948 339.433 98.3755 338.053 98.3755C336.672 98.3755 335.553 99.4948 335.553 100.875C335.553 102.256 336.672 103.375 338.053 103.375Z" fill="#FCF152"/>
<path d="M344.236 109.548C345.617 109.548 346.736 108.429 346.736 107.048C346.736 105.668 345.617 104.548 344.236 104.548C342.856 104.548 341.736 105.668 341.736 107.048C341.736 108.429 342.856 109.548 344.236 109.548Z" fill="#FCF152"/>
<path d="M239.312 17.1729C240.692 17.1729 241.812 16.0536 241.812 14.6729C241.812 13.2921 240.692 12.1729 239.312 12.1729C237.931 12.1729 236.812 13.2921 236.812 14.6729C236.812 16.0536 237.931 17.1729 239.312 17.1729Z" fill="#FCF152"/>
<path d="M245.491 23.2734C246.872 23.2734 247.991 22.1541 247.991 20.7734C247.991 19.3927 246.872 18.2734 245.491 18.2734C244.111 18.2734 242.991 19.3927 242.991 20.7734C242.991 22.1541 244.111 23.2734 245.491 23.2734Z" fill="#FCF152"/>
<path d="M251.677 29.4463C253.057 29.4463 254.177 28.327 254.177 26.9463C254.177 25.5656 253.057 24.4463 251.677 24.4463C250.296 24.4463 249.177 25.5656 249.177 26.9463C249.177 28.327 250.296 29.4463 251.677 29.4463Z" fill="#FCF152"/>
<path d="M257.853 35.6196C259.233 35.6196 260.353 34.5003 260.353 33.1196C260.353 31.7389 259.233 30.6196 257.853 30.6196C256.472 30.6196 255.353 31.7389 255.353 33.1196C255.353 34.5003 256.472 35.6196 257.853 35.6196Z" fill="#FCF152"/>
<path d="M264.036 41.793C265.417 41.793 266.536 40.6737 266.536 39.293C266.536 37.9123 265.417 36.793 264.036 36.793C262.655 36.793 261.536 37.9123 261.536 39.293C261.536 40.6737 262.655 41.793 264.036 41.793Z" fill="#FCF152"/>
<path d="M270.141 47.9658C271.521 47.9658 272.641 46.8465 272.641 45.4658C272.641 44.0851 271.521 42.9658 270.141 42.9658C268.76 42.9658 267.641 44.0851 267.641 45.4658C267.641 46.8465 268.76 47.9658 270.141 47.9658Z" fill="#FCF152"/>
<path d="M276.322 54.1382C277.703 54.1382 278.822 53.0189 278.822 51.6382C278.822 50.2575 277.703 49.1382 276.322 49.1382C274.942 49.1382 273.822 50.2575 273.822 51.6382C273.822 53.0189 274.942 54.1382 276.322 54.1382Z" fill="#FCF152"/>
<path d="M282.504 60.2373C283.885 60.2373 285.004 59.118 285.004 57.7373C285.004 56.3566 283.885 55.2373 282.504 55.2373C281.123 55.2373 280.004 56.3566 280.004 57.7373C280.004 59.118 281.123 60.2373 282.504 60.2373Z" fill="#FCF152"/>
<path d="M288.684 66.4102C290.064 66.4102 291.184 65.2909 291.184 63.9102C291.184 62.5295 290.064 61.4102 288.684 61.4102C287.303 61.4102 286.184 62.5295 286.184 63.9102C286.184 65.2909 287.303 66.4102 288.684 66.4102Z" fill="#FCF152"/>
<path d="M294.865 72.583C296.246 72.583 297.365 71.4637 297.365 70.083C297.365 68.7023 296.246 67.583 294.865 67.583C293.485 67.583 292.365 68.7023 292.365 70.083C292.365 71.4637 293.485 72.583 294.865 72.583Z" fill="#FCF152"/>
<path d="M301.044 78.7559C302.425 78.7559 303.544 77.6366 303.544 76.2559C303.544 74.8752 302.425 73.7559 301.044 73.7559C299.663 73.7559 298.544 74.8752 298.544 76.2559C298.544 77.6366 299.663 78.7559 301.044 78.7559Z" fill="#FCF152"/>
<path d="M307.225 84.9292C308.605 84.9292 309.725 83.8099 309.725 82.4292C309.725 81.0485 308.605 79.9292 307.225 79.9292C305.844 79.9292 304.725 81.0485 304.725 82.4292C304.725 83.8099 305.844 84.9292 307.225 84.9292Z" fill="#FCF152"/>
<path d="M313.334 91.1016C314.715 91.1016 315.834 89.9823 315.834 88.6016C315.834 87.2209 314.715 86.1016 313.334 86.1016C311.953 86.1016 310.834 87.2209 310.834 88.6016C310.834 89.9823 311.953 91.1016 313.334 91.1016Z" fill="#FCF152"/>
<path d="M319.513 97.2744C320.893 97.2744 322.013 96.1551 322.013 94.7744C322.013 93.3937 320.893 92.2744 319.513 92.2744C318.132 92.2744 317.013 93.3937 317.013 94.7744C317.013 96.1551 318.132 97.2744 319.513 97.2744Z" fill="#FCF152"/>
<path d="M325.693 103.375C327.074 103.375 328.193 102.256 328.193 100.875C328.193 99.4948 327.074 98.3755 325.693 98.3755C324.313 98.3755 323.193 99.4948 323.193 100.875C323.193 102.256 324.313 103.375 325.693 103.375Z" fill="#FCF152"/>
<path d="M331.874 109.548C333.255 109.548 334.374 108.429 334.374 107.048C334.374 105.668 333.255 104.548 331.874 104.548C330.493 104.548 329.374 105.668 329.374 107.048C329.374 108.429 330.493 109.548 331.874 109.548Z" fill="#FCF152"/>
<path d="M338.053 115.72C339.433 115.72 340.553 114.601 340.553 113.22C340.553 111.84 339.433 110.72 338.053 110.72C336.672 110.72 335.553 111.84 335.553 113.22C335.553 114.601 336.672 115.72 338.053 115.72Z" fill="#FCF152"/>
<path d="M344.236 121.893C345.617 121.893 346.736 120.774 346.736 119.393C346.736 118.012 345.617 116.893 344.236 116.893C342.856 116.893 341.736 118.012 341.736 119.393C341.736 120.774 342.856 121.893 344.236 121.893Z" fill="#FCF152"/>
<path d="M233.131 23.2734C234.512 23.2734 235.631 22.1541 235.631 20.7734C235.631 19.3927 234.512 18.2734 233.131 18.2734C231.75 18.2734 230.631 19.3927 230.631 20.7734C230.631 22.1541 231.75 23.2734 233.131 23.2734Z" fill="#FCF152"/>
<path d="M239.312 29.4463C240.692 29.4463 241.812 28.327 241.812 26.9463C241.812 25.5656 240.692 24.4463 239.312 24.4463C237.931 24.4463 236.812 25.5656 236.812 26.9463C236.812 28.327 237.931 29.4463 239.312 29.4463Z" fill="#FCF152"/>
<path d="M245.491 35.6196C246.872 35.6196 247.991 34.5003 247.991 33.1196C247.991 31.7389 246.872 30.6196 245.491 30.6196C244.111 30.6196 242.991 31.7389 242.991 33.1196C242.991 34.5003 244.111 35.6196 245.491 35.6196Z" fill="#FCF152"/>
<path d="M251.677 41.793C253.057 41.793 254.177 40.6737 254.177 39.293C254.177 37.9123 253.057 36.793 251.677 36.793C250.296 36.793 249.177 37.9123 249.177 39.293C249.177 40.6737 250.296 41.793 251.677 41.793Z" fill="#FCF152"/>
<path d="M257.853 47.9658C259.233 47.9658 260.353 46.8465 260.353 45.4658C260.353 44.0851 259.233 42.9658 257.853 42.9658C256.472 42.9658 255.353 44.0851 255.353 45.4658C255.353 46.8465 256.472 47.9658 257.853 47.9658Z" fill="#FCF152"/>
<path d="M264.036 54.1382C265.417 54.1382 266.536 53.0189 266.536 51.6382C266.536 50.2575 265.417 49.1382 264.036 49.1382C262.655 49.1382 261.536 50.2575 261.536 51.6382C261.536 53.0189 262.655 54.1382 264.036 54.1382Z" fill="#FCF152"/>
<path d="M270.141 60.2373C271.521 60.2373 272.641 59.118 272.641 57.7373C272.641 56.3566 271.521 55.2373 270.141 55.2373C268.76 55.2373 267.641 56.3566 267.641 57.7373C267.641 59.118 268.76 60.2373 270.141 60.2373Z" fill="#FCF152"/>
<path d="M276.322 66.4102C277.703 66.4102 278.822 65.2909 278.822 63.9102C278.822 62.5295 277.703 61.4102 276.322 61.4102C274.942 61.4102 273.822 62.5295 273.822 63.9102C273.822 65.2909 274.942 66.4102 276.322 66.4102Z" fill="#FCF152"/>
<path d="M282.504 72.583C283.885 72.583 285.004 71.4637 285.004 70.083C285.004 68.7023 283.885 67.583 282.504 67.583C281.123 67.583 280.004 68.7023 280.004 70.083C280.004 71.4637 281.123 72.583 282.504 72.583Z" fill="#FCF152"/>
<path d="M288.684 78.7559C290.064 78.7559 291.184 77.6366 291.184 76.2559C291.184 74.8752 290.064 73.7559 288.684 73.7559C287.303 73.7559 286.184 74.8752 286.184 76.2559C286.184 77.6366 287.303 78.7559 288.684 78.7559Z" fill="#FCF152"/>
<path d="M294.865 84.9292C296.246 84.9292 297.365 83.8099 297.365 82.4292C297.365 81.0485 296.246 79.9292 294.865 79.9292C293.485 79.9292 292.365 81.0485 292.365 82.4292C292.365 83.8099 293.485 84.9292 294.865 84.9292Z" fill="#FCF152"/>
<path d="M301.044 91.1016C302.425 91.1016 303.544 89.9823 303.544 88.6016C303.544 87.2209 302.425 86.1016 301.044 86.1016C299.663 86.1016 298.544 87.2209 298.544 88.6016C298.544 89.9823 299.663 91.1016 301.044 91.1016Z" fill="#FCF152"/>
<path d="M307.225 97.2744C308.605 97.2744 309.725 96.1551 309.725 94.7744C309.725 93.3937 308.605 92.2744 307.225 92.2744C305.844 92.2744 304.725 93.3937 304.725 94.7744C304.725 96.1551 305.844 97.2744 307.225 97.2744Z" fill="#FCF152"/>
<path d="M313.334 103.375C314.715 103.375 315.834 102.256 315.834 100.875C315.834 99.4948 314.715 98.3755 313.334 98.3755C311.953 98.3755 310.834 99.4948 310.834 100.875C310.834 102.256 311.953 103.375 313.334 103.375Z" fill="#FCF152"/>
<path d="M319.513 109.548C320.893 109.548 322.013 108.429 322.013 107.048C322.013 105.668 320.893 104.548 319.513 104.548C318.132 104.548 317.013 105.668 317.013 107.048C317.013 108.429 318.132 109.548 319.513 109.548Z" fill="#FCF152"/>
<path d="M325.693 115.72C327.074 115.72 328.193 114.601 328.193 113.22C328.193 111.84 327.074 110.72 325.693 110.72C324.313 110.72 323.193 111.84 323.193 113.22C323.193 114.601 324.313 115.72 325.693 115.72Z" fill="#FCF152"/>
<path d="M331.874 121.893C333.255 121.893 334.374 120.774 334.374 119.393C334.374 118.012 333.255 116.893 331.874 116.893C330.493 116.893 329.374 118.012 329.374 119.393C329.374 120.774 330.493 121.893 331.874 121.893Z" fill="#FCF152"/>
<path d="M338.053 128.066C339.433 128.066 340.553 126.947 340.553 125.566C340.553 124.186 339.433 123.066 338.053 123.066C336.672 123.066 335.553 124.186 335.553 125.566C335.553 126.947 336.672 128.066 338.053 128.066Z" fill="#FCF152"/>
<path d="M344.236 134.24C345.617 134.24 346.736 133.12 346.736 131.74C346.736 130.359 345.617 129.24 344.236 129.24C342.856 129.24 341.736 130.359 341.736 131.74C341.736 133.12 342.856 134.24 344.236 134.24Z" fill="#FCF152"/>
<path d="M227.02 29.4463C228.4 29.4463 229.52 28.327 229.52 26.9463C229.52 25.5656 228.4 24.4463 227.02 24.4463C225.639 24.4463 224.52 25.5656 224.52 26.9463C224.52 28.327 225.639 29.4463 227.02 29.4463Z" fill="#FCF152"/>
<path d="M233.131 35.6196C234.512 35.6196 235.631 34.5003 235.631 33.1196C235.631 31.7389 234.512 30.6196 233.131 30.6196C231.75 30.6196 230.631 31.7389 230.631 33.1196C230.631 34.5003 231.75 35.6196 233.131 35.6196Z" fill="#FCF152"/>
<path d="M239.312 41.793C240.692 41.793 241.812 40.6737 241.812 39.293C241.812 37.9123 240.692 36.793 239.312 36.793C237.931 36.793 236.812 37.9123 236.812 39.293C236.812 40.6737 237.931 41.793 239.312 41.793Z" fill="#FCF152"/>
<path d="M245.491 47.9658C246.872 47.9658 247.991 46.8465 247.991 45.4658C247.991 44.0851 246.872 42.9658 245.491 42.9658C244.111 42.9658 242.991 44.0851 242.991 45.4658C242.991 46.8465 244.111 47.9658 245.491 47.9658Z" fill="#FCF152"/>
<path d="M251.677 54.1382C253.057 54.1382 254.177 53.0189 254.177 51.6382C254.177 50.2575 253.057 49.1382 251.677 49.1382C250.296 49.1382 249.177 50.2575 249.177 51.6382C249.177 53.0189 250.296 54.1382 251.677 54.1382Z" fill="#FCF152"/>
<path d="M257.853 60.2373C259.233 60.2373 260.353 59.118 260.353 57.7373C260.353 56.3566 259.233 55.2373 257.853 55.2373C256.472 55.2373 255.353 56.3566 255.353 57.7373C255.353 59.118 256.472 60.2373 257.853 60.2373Z" fill="#FCF152"/>
<path d="M264.036 66.4102C265.417 66.4102 266.536 65.2909 266.536 63.9102C266.536 62.5295 265.417 61.4102 264.036 61.4102C262.655 61.4102 261.536 62.5295 261.536 63.9102C261.536 65.2909 262.655 66.4102 264.036 66.4102Z" fill="#FCF152"/>
<path d="M270.141 72.583C271.521 72.583 272.641 71.4637 272.641 70.083C272.641 68.7023 271.521 67.583 270.141 67.583C268.76 67.583 267.641 68.7023 267.641 70.083C267.641 71.4637 268.76 72.583 270.141 72.583Z" fill="#FCF152"/>
<path d="M276.322 78.7559C277.703 78.7559 278.822 77.6366 278.822 76.2559C278.822 74.8752 277.703 73.7559 276.322 73.7559C274.942 73.7559 273.822 74.8752 273.822 76.2559C273.822 77.6366 274.942 78.7559 276.322 78.7559Z" fill="#FCF152"/>
<path d="M282.504 84.9292C283.885 84.9292 285.004 83.8099 285.004 82.4292C285.004 81.0485 283.885 79.9292 282.504 79.9292C281.123 79.9292 280.004 81.0485 280.004 82.4292C280.004 83.8099 281.123 84.9292 282.504 84.9292Z" fill="#FCF152"/>
<path d="M288.684 91.1016C290.064 91.1016 291.184 89.9823 291.184 88.6016C291.184 87.2209 290.064 86.1016 288.684 86.1016C287.303 86.1016 286.184 87.2209 286.184 88.6016C286.184 89.9823 287.303 91.1016 288.684 91.1016Z" fill="#FCF152"/>
<path d="M294.865 97.2744C296.246 97.2744 297.365 96.1551 297.365 94.7744C297.365 93.3937 296.246 92.2744 294.865 92.2744C293.485 92.2744 292.365 93.3937 292.365 94.7744C292.365 96.1551 293.485 97.2744 294.865 97.2744Z" fill="#FCF152"/>
<path d="M301.044 103.375C302.425 103.375 303.544 102.256 303.544 100.875C303.544 99.4948 302.425 98.3755 301.044 98.3755C299.663 98.3755 298.544 99.4948 298.544 100.875C298.544 102.256 299.663 103.375 301.044 103.375Z" fill="#FCF152"/>
<path d="M307.225 109.548C308.605 109.548 309.725 108.429 309.725 107.048C309.725 105.668 308.605 104.548 307.225 104.548C305.844 104.548 304.725 105.668 304.725 107.048C304.725 108.429 305.844 109.548 307.225 109.548Z" fill="#FCF152"/>
<path d="M313.334 115.72C314.715 115.72 315.834 114.601 315.834 113.22C315.834 111.84 314.715 110.72 313.334 110.72C311.953 110.72 310.834 111.84 310.834 113.22C310.834 114.601 311.953 115.72 313.334 115.72Z" fill="#FCF152"/>
<path d="M319.513 121.893C320.893 121.893 322.013 120.774 322.013 119.393C322.013 118.012 320.893 116.893 319.513 116.893C318.132 116.893 317.013 118.012 317.013 119.393C317.013 120.774 318.132 121.893 319.513 121.893Z" fill="#FCF152"/>
<path d="M325.693 128.066C327.074 128.066 328.193 126.947 328.193 125.566C328.193 124.186 327.074 123.066 325.693 123.066C324.313 123.066 323.193 124.186 323.193 125.566C323.193 126.947 324.313 128.066 325.693 128.066Z" fill="#FCF152"/>
<path d="M331.874 134.24C333.255 134.24 334.374 133.12 334.374 131.74C334.374 130.359 333.255 129.24 331.874 129.24C330.493 129.24 329.374 130.359 329.374 131.74C329.374 133.12 330.493 134.24 331.874 134.24Z" fill="#FCF152"/>
<path d="M338.053 140.412C339.433 140.412 340.553 139.293 340.553 137.912C340.553 136.531 339.433 135.412 338.053 135.412C336.672 135.412 335.553 136.531 335.553 137.912C335.553 139.293 336.672 140.412 338.053 140.412Z" fill="#FCF152"/>
<path d="M344.236 146.513C345.617 146.513 346.736 145.393 346.736 144.013C346.736 142.632 345.617 141.513 344.236 141.513C342.856 141.513 341.736 142.632 341.736 144.013C341.736 145.393 342.856 146.513 344.236 146.513Z" fill="#FCF152"/>
<path d="M220.84 35.6196C222.221 35.6196 223.34 34.5003 223.34 33.1196C223.34 31.7389 222.221 30.6196 220.84 30.6196C219.459 30.6196 218.34 31.7389 218.34 33.1196C218.34 34.5003 219.459 35.6196 220.84 35.6196Z" fill="#FCF152"/>
<path d="M227.02 41.793C228.4 41.793 229.52 40.6737 229.52 39.293C229.52 37.9123 228.4 36.793 227.02 36.793C225.639 36.793 224.52 37.9123 224.52 39.293C224.52 40.6737 225.639 41.793 227.02 41.793Z" fill="#FCF152"/>
<path d="M233.131 47.9658C234.512 47.9658 235.631 46.8465 235.631 45.4658C235.631 44.0851 234.512 42.9658 233.131 42.9658C231.75 42.9658 230.631 44.0851 230.631 45.4658C230.631 46.8465 231.75 47.9658 233.131 47.9658Z" fill="#FCF152"/>
<path d="M239.312 54.1382C240.692 54.1382 241.812 53.0189 241.812 51.6382C241.812 50.2575 240.692 49.1382 239.312 49.1382C237.931 49.1382 236.812 50.2575 236.812 51.6382C236.812 53.0189 237.931 54.1382 239.312 54.1382Z" fill="#FCF152"/>
<path d="M245.491 60.2373C246.872 60.2373 247.991 59.118 247.991 57.7373C247.991 56.3566 246.872 55.2373 245.491 55.2373C244.111 55.2373 242.991 56.3566 242.991 57.7373C242.991 59.118 244.111 60.2373 245.491 60.2373Z" fill="#FCF152"/>
<path d="M251.677 66.4102C253.057 66.4102 254.177 65.2909 254.177 63.9102C254.177 62.5295 253.057 61.4102 251.677 61.4102C250.296 61.4102 249.177 62.5295 249.177 63.9102C249.177 65.2909 250.296 66.4102 251.677 66.4102Z" fill="#FCF152"/>
<path d="M257.853 72.583C259.233 72.583 260.353 71.4637 260.353 70.083C260.353 68.7023 259.233 67.583 257.853 67.583C256.472 67.583 255.353 68.7023 255.353 70.083C255.353 71.4637 256.472 72.583 257.853 72.583Z" fill="#FCF152"/>
<path d="M264.036 78.7559C265.417 78.7559 266.536 77.6366 266.536 76.2559C266.536 74.8752 265.417 73.7559 264.036 73.7559C262.655 73.7559 261.536 74.8752 261.536 76.2559C261.536 77.6366 262.655 78.7559 264.036 78.7559Z" fill="#FCF152"/>
<path d="M270.141 84.9292C271.521 84.9292 272.641 83.8099 272.641 82.4292C272.641 81.0485 271.521 79.9292 270.141 79.9292C268.76 79.9292 267.641 81.0485 267.641 82.4292C267.641 83.8099 268.76 84.9292 270.141 84.9292Z" fill="#FCF152"/>
<path d="M276.322 91.1016C277.703 91.1016 278.822 89.9823 278.822 88.6016C278.822 87.2209 277.703 86.1016 276.322 86.1016C274.942 86.1016 273.822 87.2209 273.822 88.6016C273.822 89.9823 274.942 91.1016 276.322 91.1016Z" fill="#FCF152"/>
<path d="M282.504 97.2744C283.885 97.2744 285.004 96.1551 285.004 94.7744C285.004 93.3937 283.885 92.2744 282.504 92.2744C281.123 92.2744 280.004 93.3937 280.004 94.7744C280.004 96.1551 281.123 97.2744 282.504 97.2744Z" fill="#FCF152"/>
<path d="M288.684 103.375C290.064 103.375 291.184 102.256 291.184 100.875C291.184 99.4948 290.064 98.3755 288.684 98.3755C287.303 98.3755 286.184 99.4948 286.184 100.875C286.184 102.256 287.303 103.375 288.684 103.375Z" fill="#FCF152"/>
<path d="M294.865 109.548C296.246 109.548 297.365 108.429 297.365 107.048C297.365 105.668 296.246 104.548 294.865 104.548C293.485 104.548 292.365 105.668 292.365 107.048C292.365 108.429 293.485 109.548 294.865 109.548Z" fill="#FCF152"/>
<path d="M301.044 115.72C302.425 115.72 303.544 114.601 303.544 113.22C303.544 111.84 302.425 110.72 301.044 110.72C299.663 110.72 298.544 111.84 298.544 113.22C298.544 114.601 299.663 115.72 301.044 115.72Z" fill="#FCF152"/>
<path d="M307.225 121.893C308.605 121.893 309.725 120.774 309.725 119.393C309.725 118.012 308.605 116.893 307.225 116.893C305.844 116.893 304.725 118.012 304.725 119.393C304.725 120.774 305.844 121.893 307.225 121.893Z" fill="#FCF152"/>
<path d="M313.334 128.066C314.715 128.066 315.834 126.947 315.834 125.566C315.834 124.186 314.715 123.066 313.334 123.066C311.953 123.066 310.834 124.186 310.834 125.566C310.834 126.947 311.953 128.066 313.334 128.066Z" fill="#FCF152"/>
<path d="M319.513 134.24C320.893 134.24 322.013 133.12 322.013 131.74C322.013 130.359 320.893 129.24 319.513 129.24C318.132 129.24 317.013 130.359 317.013 131.74C317.013 133.12 318.132 134.24 319.513 134.24Z" fill="#FCF152"/>
<path d="M325.693 140.412C327.074 140.412 328.193 139.293 328.193 137.912C328.193 136.531 327.074 135.412 325.693 135.412C324.313 135.412 323.193 136.531 323.193 137.912C323.193 139.293 324.313 140.412 325.693 140.412Z" fill="#FCF152"/>
<path d="M331.874 146.513C333.255 146.513 334.374 145.393 334.374 144.013C334.374 142.632 333.255 141.513 331.874 141.513C330.493 141.513 329.374 142.632 329.374 144.013C329.374 145.393 330.493 146.513 331.874 146.513Z" fill="#FCF152"/>
<path d="M338.053 152.686C339.433 152.686 340.553 151.566 340.553 150.186C340.553 148.805 339.433 147.686 338.053 147.686C336.672 147.686 335.553 148.805 335.553 150.186C335.553 151.566 336.672 152.686 338.053 152.686Z" fill="#FCF152"/>
<path d="M344.236 158.858C345.617 158.858 346.736 157.739 346.736 156.358C346.736 154.978 345.617 153.858 344.236 153.858C342.856 153.858 341.736 154.978 341.736 156.358C341.736 157.739 342.856 158.858 344.236 158.858Z" fill="#FCF152"/>
<path d="M214.659 41.793C216.04 41.793 217.159 40.6737 217.159 39.293C217.159 37.9123 216.04 36.793 214.659 36.793C213.278 36.793 212.159 37.9123 212.159 39.293C212.159 40.6737 213.278 41.793 214.659 41.793Z" fill="#FCF152"/>
<path d="M220.84 47.9658C222.221 47.9658 223.34 46.8465 223.34 45.4658C223.34 44.0851 222.221 42.9658 220.84 42.9658C219.459 42.9658 218.34 44.0851 218.34 45.4658C218.34 46.8465 219.459 47.9658 220.84 47.9658Z" fill="#FCF152"/>
<path d="M227.02 54.1382C228.4 54.1382 229.52 53.0189 229.52 51.6382C229.52 50.2575 228.4 49.1382 227.02 49.1382C225.639 49.1382 224.52 50.2575 224.52 51.6382C224.52 53.0189 225.639 54.1382 227.02 54.1382Z" fill="#FCF152"/>
<path d="M233.131 60.2373C234.512 60.2373 235.631 59.118 235.631 57.7373C235.631 56.3566 234.512 55.2373 233.131 55.2373C231.75 55.2373 230.631 56.3566 230.631 57.7373C230.631 59.118 231.75 60.2373 233.131 60.2373Z" fill="#FCF152"/>
<path d="M239.312 66.4102C240.692 66.4102 241.812 65.2909 241.812 63.9102C241.812 62.5295 240.692 61.4102 239.312 61.4102C237.931 61.4102 236.812 62.5295 236.812 63.9102C236.812 65.2909 237.931 66.4102 239.312 66.4102Z" fill="#FCF152"/>
<path d="M245.491 72.583C246.872 72.583 247.991 71.4637 247.991 70.083C247.991 68.7023 246.872 67.583 245.491 67.583C244.111 67.583 242.991 68.7023 242.991 70.083C242.991 71.4637 244.111 72.583 245.491 72.583Z" fill="#FCF152"/>
<path d="M251.677 78.7559C253.057 78.7559 254.177 77.6366 254.177 76.2559C254.177 74.8752 253.057 73.7559 251.677 73.7559C250.296 73.7559 249.177 74.8752 249.177 76.2559C249.177 77.6366 250.296 78.7559 251.677 78.7559Z" fill="#FCF152"/>
<path d="M257.853 84.9292C259.233 84.9292 260.353 83.8099 260.353 82.4292C260.353 81.0485 259.233 79.9292 257.853 79.9292C256.472 79.9292 255.353 81.0485 255.353 82.4292C255.353 83.8099 256.472 84.9292 257.853 84.9292Z" fill="#FCF152"/>
<path d="M264.036 91.1016C265.417 91.1016 266.536 89.9823 266.536 88.6016C266.536 87.2209 265.417 86.1016 264.036 86.1016C262.655 86.1016 261.536 87.2209 261.536 88.6016C261.536 89.9823 262.655 91.1016 264.036 91.1016Z" fill="#FCF152"/>
<path d="M270.141 97.2744C271.521 97.2744 272.641 96.1551 272.641 94.7744C272.641 93.3937 271.521 92.2744 270.141 92.2744C268.76 92.2744 267.641 93.3937 267.641 94.7744C267.641 96.1551 268.76 97.2744 270.141 97.2744Z" fill="#FCF152"/>
<path d="M276.322 103.375C277.703 103.375 278.822 102.256 278.822 100.875C278.822 99.4948 277.703 98.3755 276.322 98.3755C274.942 98.3755 273.822 99.4948 273.822 100.875C273.822 102.256 274.942 103.375 276.322 103.375Z" fill="#FCF152"/>
<path d="M282.504 109.548C283.885 109.548 285.004 108.429 285.004 107.048C285.004 105.668 283.885 104.548 282.504 104.548C281.123 104.548 280.004 105.668 280.004 107.048C280.004 108.429 281.123 109.548 282.504 109.548Z" fill="#FCF152"/>
<path d="M288.684 115.72C290.064 115.72 291.184 114.601 291.184 113.22C291.184 111.84 290.064 110.72 288.684 110.72C287.303 110.72 286.184 111.84 286.184 113.22C286.184 114.601 287.303 115.72 288.684 115.72Z" fill="#FCF152"/>
<path d="M294.865 121.893C296.246 121.893 297.365 120.774 297.365 119.393C297.365 118.012 296.246 116.893 294.865 116.893C293.485 116.893 292.365 118.012 292.365 119.393C292.365 120.774 293.485 121.893 294.865 121.893Z" fill="#FCF152"/>
<path d="M301.044 128.066C302.425 128.066 303.544 126.947 303.544 125.566C303.544 124.186 302.425 123.066 301.044 123.066C299.663 123.066 298.544 124.186 298.544 125.566C298.544 126.947 299.663 128.066 301.044 128.066Z" fill="#FCF152"/>
<path d="M307.225 134.24C308.605 134.24 309.725 133.12 309.725 131.74C309.725 130.359 308.605 129.24 307.225 129.24C305.844 129.24 304.725 130.359 304.725 131.74C304.725 133.12 305.844 134.24 307.225 134.24Z" fill="#FCF152"/>
<path d="M313.334 140.412C314.715 140.412 315.834 139.293 315.834 137.912C315.834 136.531 314.715 135.412 313.334 135.412C311.953 135.412 310.834 136.531 310.834 137.912C310.834 139.293 311.953 140.412 313.334 140.412Z" fill="#FCF152"/>
<path d="M319.513 146.513C320.893 146.513 322.013 145.393 322.013 144.013C322.013 142.632 320.893 141.513 319.513 141.513C318.132 141.513 317.013 142.632 317.013 144.013C317.013 145.393 318.132 146.513 319.513 146.513Z" fill="#FCF152"/>
<path d="M325.693 152.686C327.074 152.686 328.193 151.566 328.193 150.186C328.193 148.805 327.074 147.686 325.693 147.686C324.313 147.686 323.193 148.805 323.193 150.186C323.193 151.566 324.313 152.686 325.693 152.686Z" fill="#FCF152"/>
<path d="M331.874 158.858C333.255 158.858 334.374 157.739 334.374 156.358C334.374 154.978 333.255 153.858 331.874 153.858C330.493 153.858 329.374 154.978 329.374 156.358C329.374 157.739 330.493 158.858 331.874 158.858Z" fill="#FCF152"/>
<path d="M208.48 47.9658C209.861 47.9658 210.98 46.8465 210.98 45.4658C210.98 44.0851 209.861 42.9658 208.48 42.9658C207.1 42.9658 205.98 44.0851 205.98 45.4658C205.98 46.8465 207.1 47.9658 208.48 47.9658Z" fill="#FCF152"/>
<path d="M214.659 54.1382C216.04 54.1382 217.159 53.0189 217.159 51.6382C217.159 50.2575 216.04 49.1382 214.659 49.1382C213.278 49.1382 212.159 50.2575 212.159 51.6382C212.159 53.0189 213.278 54.1382 214.659 54.1382Z" fill="#FCF152"/>
<path d="M220.84 60.2373C222.221 60.2373 223.34 59.118 223.34 57.7373C223.34 56.3566 222.221 55.2373 220.84 55.2373C219.459 55.2373 218.34 56.3566 218.34 57.7373C218.34 59.118 219.459 60.2373 220.84 60.2373Z" fill="#FCF152"/>
<path d="M227.02 66.4102C228.4 66.4102 229.52 65.2909 229.52 63.9102C229.52 62.5295 228.4 61.4102 227.02 61.4102C225.639 61.4102 224.52 62.5295 224.52 63.9102C224.52 65.2909 225.639 66.4102 227.02 66.4102Z" fill="#FCF152"/>
<path d="M233.131 72.583C234.512 72.583 235.631 71.4637 235.631 70.083C235.631 68.7023 234.512 67.583 233.131 67.583C231.75 67.583 230.631 68.7023 230.631 70.083C230.631 71.4637 231.75 72.583 233.131 72.583Z" fill="#FCF152"/>
<path d="M239.312 78.7559C240.692 78.7559 241.812 77.6366 241.812 76.2559C241.812 74.8752 240.692 73.7559 239.312 73.7559C237.931 73.7559 236.812 74.8752 236.812 76.2559C236.812 77.6366 237.931 78.7559 239.312 78.7559Z" fill="#FCF152"/>
<path d="M245.491 84.9292C246.872 84.9292 247.991 83.8099 247.991 82.4292C247.991 81.0485 246.872 79.9292 245.491 79.9292C244.111 79.9292 242.991 81.0485 242.991 82.4292C242.991 83.8099 244.111 84.9292 245.491 84.9292Z" fill="#FCF152"/>
<path d="M251.677 91.1016C253.057 91.1016 254.177 89.9823 254.177 88.6016C254.177 87.2209 253.057 86.1016 251.677 86.1016C250.296 86.1016 249.177 87.2209 249.177 88.6016C249.177 89.9823 250.296 91.1016 251.677 91.1016Z" fill="#FCF152"/>
<path d="M257.853 97.2744C259.233 97.2744 260.353 96.1551 260.353 94.7744C260.353 93.3937 259.233 92.2744 257.853 92.2744C256.472 92.2744 255.353 93.3937 255.353 94.7744C255.353 96.1551 256.472 97.2744 257.853 97.2744Z" fill="#FCF152"/>
<path d="M264.036 103.375C265.417 103.375 266.536 102.256 266.536 100.875C266.536 99.4948 265.417 98.3755 264.036 98.3755C262.655 98.3755 261.536 99.4948 261.536 100.875C261.536 102.256 262.655 103.375 264.036 103.375Z" fill="#FCF152"/>
<path d="M270.141 109.548C271.521 109.548 272.641 108.429 272.641 107.048C272.641 105.668 271.521 104.548 270.141 104.548C268.76 104.548 267.641 105.668 267.641 107.048C267.641 108.429 268.76 109.548 270.141 109.548Z" fill="#FCF152"/>
<path d="M276.322 115.72C277.703 115.72 278.822 114.601 278.822 113.22C278.822 111.84 277.703 110.72 276.322 110.72C274.942 110.72 273.822 111.84 273.822 113.22C273.822 114.601 274.942 115.72 276.322 115.72Z" fill="#FCF152"/>
<path d="M282.504 121.893C283.885 121.893 285.004 120.774 285.004 119.393C285.004 118.012 283.885 116.893 282.504 116.893C281.123 116.893 280.004 118.012 280.004 119.393C280.004 120.774 281.123 121.893 282.504 121.893Z" fill="#FCF152"/>
<path d="M288.684 128.066C290.064 128.066 291.184 126.947 291.184 125.566C291.184 124.186 290.064 123.066 288.684 123.066C287.303 123.066 286.184 124.186 286.184 125.566C286.184 126.947 287.303 128.066 288.684 128.066Z" fill="#FCF152"/>
<path d="M294.865 134.24C296.246 134.24 297.365 133.12 297.365 131.74C297.365 130.359 296.246 129.24 294.865 129.24C293.485 129.24 292.365 130.359 292.365 131.74C292.365 133.12 293.485 134.24 294.865 134.24Z" fill="#FCF152"/>
<path d="M301.044 140.412C302.425 140.412 303.544 139.293 303.544 137.912C303.544 136.531 302.425 135.412 301.044 135.412C299.663 135.412 298.544 136.531 298.544 137.912C298.544 139.293 299.663 140.412 301.044 140.412Z" fill="#FCF152"/>
<path d="M307.225 146.513C308.605 146.513 309.725 145.393 309.725 144.013C309.725 142.632 308.605 141.513 307.225 141.513C305.844 141.513 304.725 142.632 304.725 144.013C304.725 145.393 305.844 146.513 307.225 146.513Z" fill="#FCF152"/>
<path d="M313.334 152.686C314.715 152.686 315.834 151.566 315.834 150.186C315.834 148.805 314.715 147.686 313.334 147.686C311.953 147.686 310.834 148.805 310.834 150.186C310.834 151.566 311.953 152.686 313.334 152.686Z" fill="#FCF152"/>
<path d="M319.513 158.858C320.893 158.858 322.013 157.739 322.013 156.358C322.013 154.978 320.893 153.858 319.513 153.858C318.132 153.858 317.013 154.978 317.013 156.358C317.013 157.739 318.132 158.858 319.513 158.858Z" fill="#FCF152"/>
<path d="M202.297 54.1382C203.678 54.1382 204.797 53.0189 204.797 51.6382C204.797 50.2575 203.678 49.1382 202.297 49.1382C200.916 49.1382 199.797 50.2575 199.797 51.6382C199.797 53.0189 200.916 54.1382 202.297 54.1382Z" fill="#FCF152"/>
<path d="M208.48 60.2373C209.861 60.2373 210.98 59.118 210.98 57.7373C210.98 56.3566 209.861 55.2373 208.48 55.2373C207.1 55.2373 205.98 56.3566 205.98 57.7373C205.98 59.118 207.1 60.2373 208.48 60.2373Z" fill="#FCF152"/>
<path d="M214.659 66.4102C216.04 66.4102 217.159 65.2909 217.159 63.9102C217.159 62.5295 216.04 61.4102 214.659 61.4102C213.278 61.4102 212.159 62.5295 212.159 63.9102C212.159 65.2909 213.278 66.4102 214.659 66.4102Z" fill="#FCF152"/>
<path d="M220.84 72.583C222.221 72.583 223.34 71.4637 223.34 70.083C223.34 68.7023 222.221 67.583 220.84 67.583C219.459 67.583 218.34 68.7023 218.34 70.083C218.34 71.4637 219.459 72.583 220.84 72.583Z" fill="#FCF152"/>
<path d="M227.02 78.7559C228.4 78.7559 229.52 77.6366 229.52 76.2559C229.52 74.8752 228.4 73.7559 227.02 73.7559C225.639 73.7559 224.52 74.8752 224.52 76.2559C224.52 77.6366 225.639 78.7559 227.02 78.7559Z" fill="#FCF152"/>
<path d="M233.131 84.9292C234.512 84.9292 235.631 83.8099 235.631 82.4292C235.631 81.0485 234.512 79.9292 233.131 79.9292C231.75 79.9292 230.631 81.0485 230.631 82.4292C230.631 83.8099 231.75 84.9292 233.131 84.9292Z" fill="#FCF152"/>
<path d="M239.312 91.1016C240.692 91.1016 241.812 89.9823 241.812 88.6016C241.812 87.2209 240.692 86.1016 239.312 86.1016C237.931 86.1016 236.812 87.2209 236.812 88.6016C236.812 89.9823 237.931 91.1016 239.312 91.1016Z" fill="#FCF152"/>
<path d="M245.491 97.2744C246.872 97.2744 247.991 96.1551 247.991 94.7744C247.991 93.3937 246.872 92.2744 245.491 92.2744C244.111 92.2744 242.991 93.3937 242.991 94.7744C242.991 96.1551 244.111 97.2744 245.491 97.2744Z" fill="#FCF152"/>
<path d="M251.677 103.375C253.057 103.375 254.177 102.256 254.177 100.875C254.177 99.4948 253.057 98.3755 251.677 98.3755C250.296 98.3755 249.177 99.4948 249.177 100.875C249.177 102.256 250.296 103.375 251.677 103.375Z" fill="#FCF152"/>
<path d="M257.853 109.548C259.233 109.548 260.353 108.429 260.353 107.048C260.353 105.668 259.233 104.548 257.853 104.548C256.472 104.548 255.353 105.668 255.353 107.048C255.353 108.429 256.472 109.548 257.853 109.548Z" fill="#FCF152"/>
<path d="M264.036 115.72C265.417 115.72 266.536 114.601 266.536 113.22C266.536 111.84 265.417 110.72 264.036 110.72C262.655 110.72 261.536 111.84 261.536 113.22C261.536 114.601 262.655 115.72 264.036 115.72Z" fill="#FCF152"/>
<path d="M270.141 121.893C271.521 121.893 272.641 120.774 272.641 119.393C272.641 118.012 271.521 116.893 270.141 116.893C268.76 116.893 267.641 118.012 267.641 119.393C267.641 120.774 268.76 121.893 270.141 121.893Z" fill="#FCF152"/>
<path d="M276.322 128.066C277.703 128.066 278.822 126.947 278.822 125.566C278.822 124.186 277.703 123.066 276.322 123.066C274.942 123.066 273.822 124.186 273.822 125.566C273.822 126.947 274.942 128.066 276.322 128.066Z" fill="#FCF152"/>
<path d="M282.504 134.24C283.885 134.24 285.004 133.12 285.004 131.74C285.004 130.359 283.885 129.24 282.504 129.24C281.123 129.24 280.004 130.359 280.004 131.74C280.004 133.12 281.123 134.24 282.504 134.24Z" fill="#FCF152"/>
<path d="M288.684 140.412C290.064 140.412 291.184 139.293 291.184 137.912C291.184 136.531 290.064 135.412 288.684 135.412C287.303 135.412 286.184 136.531 286.184 137.912C286.184 139.293 287.303 140.412 288.684 140.412Z" fill="#FCF152"/>
<path d="M294.865 146.513C296.246 146.513 297.365 145.393 297.365 144.013C297.365 142.632 296.246 141.513 294.865 141.513C293.485 141.513 292.365 142.632 292.365 144.013C292.365 145.393 293.485 146.513 294.865 146.513Z" fill="#FCF152"/>
<path d="M301.044 152.686C302.425 152.686 303.544 151.566 303.544 150.186C303.544 148.805 302.425 147.686 301.044 147.686C299.663 147.686 298.544 148.805 298.544 150.186C298.544 151.566 299.663 152.686 301.044 152.686Z" fill="#FCF152"/>
<path d="M307.225 158.858C308.605 158.858 309.725 157.739 309.725 156.358C309.725 154.978 308.605 153.858 307.225 153.858C305.844 153.858 304.725 154.978 304.725 156.358C304.725 157.739 305.844 158.858 307.225 158.858Z" fill="#FCF152"/>
<path d="M196.12 60.2373C197.501 60.2373 198.62 59.118 198.62 57.7373C198.62 56.3566 197.501 55.2373 196.12 55.2373C194.739 55.2373 193.62 56.3566 193.62 57.7373C193.62 59.118 194.739 60.2373 196.12 60.2373Z" fill="#FCF152"/>
<path d="M202.297 66.4102C203.678 66.4102 204.797 65.2909 204.797 63.9102C204.797 62.5295 203.678 61.4102 202.297 61.4102C200.916 61.4102 199.797 62.5295 199.797 63.9102C199.797 65.2909 200.916 66.4102 202.297 66.4102Z" fill="#FCF152"/>
<path d="M208.48 72.583C209.861 72.583 210.98 71.4637 210.98 70.083C210.98 68.7023 209.861 67.583 208.48 67.583C207.1 67.583 205.98 68.7023 205.98 70.083C205.98 71.4637 207.1 72.583 208.48 72.583Z" fill="#FCF152"/>
<path d="M214.659 78.7559C216.04 78.7559 217.159 77.6366 217.159 76.2559C217.159 74.8752 216.04 73.7559 214.659 73.7559C213.278 73.7559 212.159 74.8752 212.159 76.2559C212.159 77.6366 213.278 78.7559 214.659 78.7559Z" fill="#FCF152"/>
<path d="M220.84 84.9292C222.221 84.9292 223.34 83.8099 223.34 82.4292C223.34 81.0485 222.221 79.9292 220.84 79.9292C219.459 79.9292 218.34 81.0485 218.34 82.4292C218.34 83.8099 219.459 84.9292 220.84 84.9292Z" fill="#FCF152"/>
<path d="M227.02 91.1016C228.4 91.1016 229.52 89.9823 229.52 88.6016C229.52 87.2209 228.4 86.1016 227.02 86.1016C225.639 86.1016 224.52 87.2209 224.52 88.6016C224.52 89.9823 225.639 91.1016 227.02 91.1016Z" fill="#FCF152"/>
<path d="M233.131 97.2744C234.512 97.2744 235.631 96.1551 235.631 94.7744C235.631 93.3937 234.512 92.2744 233.131 92.2744C231.75 92.2744 230.631 93.3937 230.631 94.7744C230.631 96.1551 231.75 97.2744 233.131 97.2744Z" fill="#FCF152"/>
<path d="M239.312 103.375C240.692 103.375 241.812 102.256 241.812 100.875C241.812 99.4948 240.692 98.3755 239.312 98.3755C237.931 98.3755 236.812 99.4948 236.812 100.875C236.812 102.256 237.931 103.375 239.312 103.375Z" fill="#FCF152"/>
<path d="M245.491 109.548C246.872 109.548 247.991 108.429 247.991 107.048C247.991 105.668 246.872 104.548 245.491 104.548C244.111 104.548 242.991 105.668 242.991 107.048C242.991 108.429 244.111 109.548 245.491 109.548Z" fill="#FCF152"/>
<path d="M251.677 115.72C253.057 115.72 254.177 114.601 254.177 113.22C254.177 111.84 253.057 110.72 251.677 110.72C250.296 110.72 249.177 111.84 249.177 113.22C249.177 114.601 250.296 115.72 251.677 115.72Z" fill="#FCF152"/>
<path d="M257.853 121.893C259.233 121.893 260.353 120.774 260.353 119.393C260.353 118.012 259.233 116.893 257.853 116.893C256.472 116.893 255.353 118.012 255.353 119.393C255.353 120.774 256.472 121.893 257.853 121.893Z" fill="#FCF152"/>
<path d="M264.036 128.066C265.417 128.066 266.536 126.947 266.536 125.566C266.536 124.186 265.417 123.066 264.036 123.066C262.655 123.066 261.536 124.186 261.536 125.566C261.536 126.947 262.655 128.066 264.036 128.066Z" fill="#FCF152"/>
<path d="M270.141 134.24C271.521 134.24 272.641 133.12 272.641 131.74C272.641 130.359 271.521 129.24 270.141 129.24C268.76 129.24 267.641 130.359 267.641 131.74C267.641 133.12 268.76 134.24 270.141 134.24Z" fill="#FCF152"/>
<path d="M276.322 140.412C277.703 140.412 278.822 139.293 278.822 137.912C278.822 136.531 277.703 135.412 276.322 135.412C274.942 135.412 273.822 136.531 273.822 137.912C273.822 139.293 274.942 140.412 276.322 140.412Z" fill="#FCF152"/>
<path d="M282.504 146.513C283.885 146.513 285.004 145.393 285.004 144.013C285.004 142.632 283.885 141.513 282.504 141.513C281.123 141.513 280.004 142.632 280.004 144.013C280.004 145.393 281.123 146.513 282.504 146.513Z" fill="#FCF152"/>
<path d="M288.684 152.686C290.064 152.686 291.184 151.566 291.184 150.186C291.184 148.805 290.064 147.686 288.684 147.686C287.303 147.686 286.184 148.805 286.184 150.186C286.184 151.566 287.303 152.686 288.684 152.686Z" fill="#FCF152"/>
<path d="M294.865 158.858C296.246 158.858 297.365 157.739 297.365 156.358C297.365 154.978 296.246 153.858 294.865 153.858C293.485 153.858 292.365 154.978 292.365 156.358C292.365 157.739 293.485 158.858 294.865 158.858Z" fill="#FCF152"/>
<path d="M196.12 72.583C197.501 72.583 198.62 71.4637 198.62 70.083C198.62 68.7023 197.501 67.583 196.12 67.583C194.739 67.583 193.62 68.7023 193.62 70.083C193.62 71.4637 194.739 72.583 196.12 72.583Z" fill="#FCF152"/>
<path d="M202.297 78.7559C203.678 78.7559 204.797 77.6366 204.797 76.2559C204.797 74.8752 203.678 73.7559 202.297 73.7559C200.916 73.7559 199.797 74.8752 199.797 76.2559C199.797 77.6366 200.916 78.7559 202.297 78.7559Z" fill="#FCF152"/>
<path d="M208.48 84.9292C209.861 84.9292 210.98 83.8099 210.98 82.4292C210.98 81.0485 209.861 79.9292 208.48 79.9292C207.1 79.9292 205.98 81.0485 205.98 82.4292C205.98 83.8099 207.1 84.9292 208.48 84.9292Z" fill="#FCF152"/>
<path d="M214.659 91.1016C216.04 91.1016 217.159 89.9823 217.159 88.6016C217.159 87.2209 216.04 86.1016 214.659 86.1016C213.278 86.1016 212.159 87.2209 212.159 88.6016C212.159 89.9823 213.278 91.1016 214.659 91.1016Z" fill="#FCF152"/>
<path d="M220.84 97.2744C222.221 97.2744 223.34 96.1551 223.34 94.7744C223.34 93.3937 222.221 92.2744 220.84 92.2744C219.459 92.2744 218.34 93.3937 218.34 94.7744C218.34 96.1551 219.459 97.2744 220.84 97.2744Z" fill="#FCF152"/>
<path d="M227.02 103.375C228.4 103.375 229.52 102.256 229.52 100.875C229.52 99.4948 228.4 98.3755 227.02 98.3755C225.639 98.3755 224.52 99.4948 224.52 100.875C224.52 102.256 225.639 103.375 227.02 103.375Z" fill="#FCF152"/>
<path d="M233.131 109.548C234.512 109.548 235.631 108.429 235.631 107.048C235.631 105.668 234.512 104.548 233.131 104.548C231.75 104.548 230.631 105.668 230.631 107.048C230.631 108.429 231.75 109.548 233.131 109.548Z" fill="#FCF152"/>
<path d="M239.312 115.72C240.692 115.72 241.812 114.601 241.812 113.22C241.812 111.84 240.692 110.72 239.312 110.72C237.931 110.72 236.812 111.84 236.812 113.22C236.812 114.601 237.931 115.72 239.312 115.72Z" fill="#FCF152"/>
<path d="M245.491 121.893C246.872 121.893 247.991 120.774 247.991 119.393C247.991 118.012 246.872 116.893 245.491 116.893C244.111 116.893 242.991 118.012 242.991 119.393C242.991 120.774 244.111 121.893 245.491 121.893Z" fill="#FCF152"/>
<path d="M251.677 128.066C253.057 128.066 254.177 126.947 254.177 125.566C254.177 124.186 253.057 123.066 251.677 123.066C250.296 123.066 249.177 124.186 249.177 125.566C249.177 126.947 250.296 128.066 251.677 128.066Z" fill="#FCF152"/>
<path d="M257.853 134.24C259.233 134.24 260.353 133.12 260.353 131.74C260.353 130.359 259.233 129.24 257.853 129.24C256.472 129.24 255.353 130.359 255.353 131.74C255.353 133.12 256.472 134.24 257.853 134.24Z" fill="#FCF152"/>
<path d="M264.036 140.412C265.417 140.412 266.536 139.293 266.536 137.912C266.536 136.531 265.417 135.412 264.036 135.412C262.655 135.412 261.536 136.531 261.536 137.912C261.536 139.293 262.655 140.412 264.036 140.412Z" fill="#FCF152"/>
<path d="M270.141 146.513C271.521 146.513 272.641 145.393 272.641 144.013C272.641 142.632 271.521 141.513 270.141 141.513C268.76 141.513 267.641 142.632 267.641 144.013C267.641 145.393 268.76 146.513 270.141 146.513Z" fill="#FCF152"/>
<path d="M276.322 152.686C277.703 152.686 278.822 151.566 278.822 150.186C278.822 148.805 277.703 147.686 276.322 147.686C274.942 147.686 273.822 148.805 273.822 150.186C273.822 151.566 274.942 152.686 276.322 152.686Z" fill="#FCF152"/>
<path d="M282.504 158.858C283.885 158.858 285.004 157.739 285.004 156.358C285.004 154.978 283.885 153.858 282.504 153.858C281.123 153.858 280.004 154.978 280.004 156.358C280.004 157.739 281.123 158.858 282.504 158.858Z" fill="#FCF152"/>
<path d="M189.936 78.7559C191.316 78.7559 192.436 77.6366 192.436 76.2559C192.436 74.8752 191.316 73.7559 189.936 73.7559C188.555 73.7559 187.436 74.8752 187.436 76.2559C187.436 77.6366 188.555 78.7559 189.936 78.7559Z" fill="#FCF152"/>
<path d="M196.12 84.9292C197.501 84.9292 198.62 83.8099 198.62 82.4292C198.62 81.0485 197.501 79.9292 196.12 79.9292C194.739 79.9292 193.62 81.0485 193.62 82.4292C193.62 83.8099 194.739 84.9292 196.12 84.9292Z" fill="#FCF152"/>
<path d="M202.297 91.1016C203.678 91.1016 204.797 89.9823 204.797 88.6016C204.797 87.2209 203.678 86.1016 202.297 86.1016C200.916 86.1016 199.797 87.2209 199.797 88.6016C199.797 89.9823 200.916 91.1016 202.297 91.1016Z" fill="#FCF152"/>
<path d="M208.48 97.2744C209.861 97.2744 210.98 96.1551 210.98 94.7744C210.98 93.3937 209.861 92.2744 208.48 92.2744C207.1 92.2744 205.98 93.3937 205.98 94.7744C205.98 96.1551 207.1 97.2744 208.48 97.2744Z" fill="#FCF152"/>
<path d="M214.659 103.375C216.04 103.375 217.159 102.256 217.159 100.875C217.159 99.4948 216.04 98.3755 214.659 98.3755C213.278 98.3755 212.159 99.4948 212.159 100.875C212.159 102.256 213.278 103.375 214.659 103.375Z" fill="#FCF152"/>
<path d="M220.84 109.548C222.221 109.548 223.34 108.429 223.34 107.048C223.34 105.668 222.221 104.548 220.84 104.548C219.459 104.548 218.34 105.668 218.34 107.048C218.34 108.429 219.459 109.548 220.84 109.548Z" fill="#FCF152"/>
<path d="M227.02 115.72C228.4 115.72 229.52 114.601 229.52 113.22C229.52 111.84 228.4 110.72 227.02 110.72C225.639 110.72 224.52 111.84 224.52 113.22C224.52 114.601 225.639 115.72 227.02 115.72Z" fill="#FCF152"/>
<path d="M233.131 121.893C234.512 121.893 235.631 120.774 235.631 119.393C235.631 118.012 234.512 116.893 233.131 116.893C231.75 116.893 230.631 118.012 230.631 119.393C230.631 120.774 231.75 121.893 233.131 121.893Z" fill="#FCF152"/>
<path d="M239.312 128.066C240.692 128.066 241.812 126.947 241.812 125.566C241.812 124.186 240.692 123.066 239.312 123.066C237.931 123.066 236.812 124.186 236.812 125.566C236.812 126.947 237.931 128.066 239.312 128.066Z" fill="#FCF152"/>
<path d="M245.491 134.24C246.872 134.24 247.991 133.12 247.991 131.74C247.991 130.359 246.872 129.24 245.491 129.24C244.111 129.24 242.991 130.359 242.991 131.74C242.991 133.12 244.111 134.24 245.491 134.24Z" fill="#FCF152"/>
<path d="M251.677 140.412C253.057 140.412 254.177 139.293 254.177 137.912C254.177 136.531 253.057 135.412 251.677 135.412C250.296 135.412 249.177 136.531 249.177 137.912C249.177 139.293 250.296 140.412 251.677 140.412Z" fill="#FCF152"/>
<path d="M257.853 146.513C259.233 146.513 260.353 145.393 260.353 144.013C260.353 142.632 259.233 141.513 257.853 141.513C256.472 141.513 255.353 142.632 255.353 144.013C255.353 145.393 256.472 146.513 257.853 146.513Z" fill="#FCF152"/>
<path d="M264.036 152.686C265.417 152.686 266.536 151.566 266.536 150.186C266.536 148.805 265.417 147.686 264.036 147.686C262.655 147.686 261.536 148.805 261.536 150.186C261.536 151.566 262.655 152.686 264.036 152.686Z" fill="#FCF152"/>
<path d="M270.141 158.858C271.521 158.858 272.641 157.739 272.641 156.358C272.641 154.978 271.521 153.858 270.141 153.858C268.76 153.858 267.641 154.978 267.641 156.358C267.641 157.739 268.76 158.858 270.141 158.858Z" fill="#FCF152"/>
<path d="M189.936 91.1016C191.316 91.1016 192.436 89.9823 192.436 88.6016C192.436 87.2209 191.316 86.1016 189.936 86.1016C188.555 86.1016 187.436 87.2209 187.436 88.6016C187.436 89.9823 188.555 91.1016 189.936 91.1016Z" fill="#FCF152"/>
<path d="M196.12 97.2744C197.501 97.2744 198.62 96.1551 198.62 94.7744C198.62 93.3937 197.501 92.2744 196.12 92.2744C194.739 92.2744 193.62 93.3937 193.62 94.7744C193.62 96.1551 194.739 97.2744 196.12 97.2744Z" fill="#FCF152"/>
<path d="M202.297 103.375C203.678 103.375 204.797 102.256 204.797 100.875C204.797 99.4948 203.678 98.3755 202.297 98.3755C200.916 98.3755 199.797 99.4948 199.797 100.875C199.797 102.256 200.916 103.375 202.297 103.375Z" fill="#FCF152"/>
<path d="M208.48 109.548C209.861 109.548 210.98 108.429 210.98 107.048C210.98 105.668 209.861 104.548 208.48 104.548C207.1 104.548 205.98 105.668 205.98 107.048C205.98 108.429 207.1 109.548 208.48 109.548Z" fill="#FCF152"/>
<path d="M214.659 115.72C216.04 115.72 217.159 114.601 217.159 113.22C217.159 111.84 216.04 110.72 214.659 110.72C213.278 110.72 212.159 111.84 212.159 113.22C212.159 114.601 213.278 115.72 214.659 115.72Z" fill="#FCF152"/>
<path d="M220.84 121.893C222.221 121.893 223.34 120.774 223.34 119.393C223.34 118.012 222.221 116.893 220.84 116.893C219.459 116.893 218.34 118.012 218.34 119.393C218.34 120.774 219.459 121.893 220.84 121.893Z" fill="#FCF152"/>
<path d="M227.02 128.066C228.4 128.066 229.52 126.947 229.52 125.566C229.52 124.186 228.4 123.066 227.02 123.066C225.639 123.066 224.52 124.186 224.52 125.566C224.52 126.947 225.639 128.066 227.02 128.066Z" fill="#FCF152"/>
<path d="M233.131 134.24C234.512 134.24 235.631 133.12 235.631 131.74C235.631 130.359 234.512 129.24 233.131 129.24C231.75 129.24 230.631 130.359 230.631 131.74C230.631 133.12 231.75 134.24 233.131 134.24Z" fill="#FCF152"/>
<path d="M239.312 140.412C240.692 140.412 241.812 139.293 241.812 137.912C241.812 136.531 240.692 135.412 239.312 135.412C237.931 135.412 236.812 136.531 236.812 137.912C236.812 139.293 237.931 140.412 239.312 140.412Z" fill="#FCF152"/>
<path d="M245.491 146.513C246.872 146.513 247.991 145.393 247.991 144.013C247.991 142.632 246.872 141.513 245.491 141.513C244.111 141.513 242.991 142.632 242.991 144.013C242.991 145.393 244.111 146.513 245.491 146.513Z" fill="#FCF152"/>
<path d="M251.677 152.686C253.057 152.686 254.177 151.566 254.177 150.186C254.177 148.805 253.057 147.686 251.677 147.686C250.296 147.686 249.177 148.805 249.177 150.186C249.177 151.566 250.296 152.686 251.677 152.686Z" fill="#FCF152"/>
<path d="M257.853 158.858C259.233 158.858 260.353 157.739 260.353 156.358C260.353 154.978 259.233 153.858 257.853 153.858C256.472 153.858 255.353 154.978 255.353 156.358C255.353 157.739 256.472 158.858 257.853 158.858Z" fill="#FCF152"/>
<path d="M189.936 103.375C191.316 103.375 192.436 102.256 192.436 100.875C192.436 99.4948 191.316 98.3755 189.936 98.3755C188.555 98.3755 187.436 99.4948 187.436 100.875C187.436 102.256 188.555 103.375 189.936 103.375Z" fill="#FCF152"/>
<path d="M196.12 109.548C197.501 109.548 198.62 108.429 198.62 107.048C198.62 105.668 197.501 104.548 196.12 104.548C194.739 104.548 193.62 105.668 193.62 107.048C193.62 108.429 194.739 109.548 196.12 109.548Z" fill="#FCF152"/>
<path d="M202.297 115.72C203.678 115.72 204.797 114.601 204.797 113.22C204.797 111.84 203.678 110.72 202.297 110.72C200.916 110.72 199.797 111.84 199.797 113.22C199.797 114.601 200.916 115.72 202.297 115.72Z" fill="#FCF152"/>
<path d="M208.48 121.893C209.861 121.893 210.98 120.774 210.98 119.393C210.98 118.012 209.861 116.893 208.48 116.893C207.1 116.893 205.98 118.012 205.98 119.393C205.98 120.774 207.1 121.893 208.48 121.893Z" fill="#FCF152"/>
<path d="M214.659 128.066C216.04 128.066 217.159 126.947 217.159 125.566C217.159 124.186 216.04 123.066 214.659 123.066C213.278 123.066 212.159 124.186 212.159 125.566C212.159 126.947 213.278 128.066 214.659 128.066Z" fill="#FCF152"/>
<path d="M220.84 134.24C222.221 134.24 223.34 133.12 223.34 131.74C223.34 130.359 222.221 129.24 220.84 129.24C219.459 129.24 218.34 130.359 218.34 131.74C218.34 133.12 219.459 134.24 220.84 134.24Z" fill="#FCF152"/>
<path d="M227.02 140.412C228.4 140.412 229.52 139.293 229.52 137.912C229.52 136.531 228.4 135.412 227.02 135.412C225.639 135.412 224.52 136.531 224.52 137.912C224.52 139.293 225.639 140.412 227.02 140.412Z" fill="#FCF152"/>
<path d="M233.131 146.513C234.512 146.513 235.631 145.393 235.631 144.013C235.631 142.632 234.512 141.513 233.131 141.513C231.75 141.513 230.631 142.632 230.631 144.013C230.631 145.393 231.75 146.513 233.131 146.513Z" fill="#FCF152"/>
<path d="M239.312 152.686C240.692 152.686 241.812 151.566 241.812 150.186C241.812 148.805 240.692 147.686 239.312 147.686C237.931 147.686 236.812 148.805 236.812 150.186C236.812 151.566 237.931 152.686 239.312 152.686Z" fill="#FCF152"/>
<path d="M245.491 158.858C246.872 158.858 247.991 157.739 247.991 156.358C247.991 154.978 246.872 153.858 245.491 153.858C244.111 153.858 242.991 154.978 242.991 156.358C242.991 157.739 244.111 158.858 245.491 158.858Z" fill="#FCF152"/>
<path d="M189.936 115.72C191.316 115.72 192.436 114.601 192.436 113.22C192.436 111.84 191.316 110.72 189.936 110.72C188.555 110.72 187.436 111.84 187.436 113.22C187.436 114.601 188.555 115.72 189.936 115.72Z" fill="#FCF152"/>
<path d="M196.12 121.893C197.501 121.893 198.62 120.774 198.62 119.393C198.62 118.012 197.501 116.893 196.12 116.893C194.739 116.893 193.62 118.012 193.62 119.393C193.62 120.774 194.739 121.893 196.12 121.893Z" fill="#FCF152"/>
<path d="M202.297 128.066C203.678 128.066 204.797 126.947 204.797 125.566C204.797 124.186 203.678 123.066 202.297 123.066C200.916 123.066 199.797 124.186 199.797 125.566C199.797 126.947 200.916 128.066 202.297 128.066Z" fill="#FCF152"/>
<path d="M208.48 134.24C209.861 134.24 210.98 133.12 210.98 131.74C210.98 130.359 209.861 129.24 208.48 129.24C207.1 129.24 205.98 130.359 205.98 131.74C205.98 133.12 207.1 134.24 208.48 134.24Z" fill="#FCF152"/>
<path d="M214.659 140.412C216.04 140.412 217.159 139.293 217.159 137.912C217.159 136.531 216.04 135.412 214.659 135.412C213.278 135.412 212.159 136.531 212.159 137.912C212.159 139.293 213.278 140.412 214.659 140.412Z" fill="#FCF152"/>
<path d="M220.84 146.513C222.221 146.513 223.34 145.393 223.34 144.013C223.34 142.632 222.221 141.513 220.84 141.513C219.459 141.513 218.34 142.632 218.34 144.013C218.34 145.393 219.459 146.513 220.84 146.513Z" fill="#FCF152"/>
<path d="M227.02 152.686C228.4 152.686 229.52 151.566 229.52 150.186C229.52 148.805 228.4 147.686 227.02 147.686C225.639 147.686 224.52 148.805 224.52 150.186C224.52 151.566 225.639 152.686 227.02 152.686Z" fill="#FCF152"/>
<path d="M233.131 158.858C234.512 158.858 235.631 157.739 235.631 156.358C235.631 154.978 234.512 153.858 233.131 153.858C231.75 153.858 230.631 154.978 230.631 156.358C230.631 157.739 231.75 158.858 233.131 158.858Z" fill="#FCF152"/>
<path d="M189.936 128.066C191.316 128.066 192.436 126.947 192.436 125.566C192.436 124.186 191.316 123.066 189.936 123.066C188.555 123.066 187.436 124.186 187.436 125.566C187.436 126.947 188.555 128.066 189.936 128.066Z" fill="#FCF152"/>
<path d="M196.12 134.24C197.501 134.24 198.62 133.12 198.62 131.74C198.62 130.359 197.501 129.24 196.12 129.24C194.739 129.24 193.62 130.359 193.62 131.74C193.62 133.12 194.739 134.24 196.12 134.24Z" fill="#FCF152"/>
<path d="M202.297 140.412C203.678 140.412 204.797 139.293 204.797 137.912C204.797 136.531 203.678 135.412 202.297 135.412C200.916 135.412 199.797 136.531 199.797 137.912C199.797 139.293 200.916 140.412 202.297 140.412Z" fill="#FCF152"/>
<path d="M208.48 146.513C209.861 146.513 210.98 145.393 210.98 144.013C210.98 142.632 209.861 141.513 208.48 141.513C207.1 141.513 205.98 142.632 205.98 144.013C205.98 145.393 207.1 146.513 208.48 146.513Z" fill="#FCF152"/>
<path d="M214.659 152.686C216.04 152.686 217.159 151.566 217.159 150.186C217.159 148.805 216.04 147.686 214.659 147.686C213.278 147.686 212.159 148.805 212.159 150.186C212.159 151.566 213.278 152.686 214.659 152.686Z" fill="#FCF152"/>
<path d="M220.84 158.858C222.221 158.858 223.34 157.739 223.34 156.358C223.34 154.978 222.221 153.858 220.84 153.858C219.459 153.858 218.34 154.978 218.34 156.358C218.34 157.739 219.459 158.858 220.84 158.858Z" fill="#FCF152"/>
<path d="M189.936 140.412C191.316 140.412 192.436 139.293 192.436 137.912C192.436 136.531 191.316 135.412 189.936 135.412C188.555 135.412 187.436 136.531 187.436 137.912C187.436 139.293 188.555 140.412 189.936 140.412Z" fill="#FCF152"/>
<path d="M196.12 146.513C197.501 146.513 198.62 145.393 198.62 144.013C198.62 142.632 197.501 141.513 196.12 141.513C194.739 141.513 193.62 142.632 193.62 144.013C193.62 145.393 194.739 146.513 196.12 146.513Z" fill="#FCF152"/>
<path d="M202.297 152.686C203.678 152.686 204.797 151.566 204.797 150.186C204.797 148.805 203.678 147.686 202.297 147.686C200.916 147.686 199.797 148.805 199.797 150.186C199.797 151.566 200.916 152.686 202.297 152.686Z" fill="#FCF152"/>
<path d="M208.48 158.858C209.861 158.858 210.98 157.739 210.98 156.358C210.98 154.978 209.861 153.858 208.48 153.858C207.1 153.858 205.98 154.978 205.98 156.358C205.98 157.739 207.1 158.858 208.48 158.858Z" fill="#FCF152"/>
<path d="M189.936 152.686C191.316 152.686 192.436 151.566 192.436 150.186C192.436 148.805 191.316 147.686 189.936 147.686C188.555 147.686 187.436 148.805 187.436 150.186C187.436 151.566 188.555 152.686 189.936 152.686Z" fill="#FCF152"/>
<path d="M196.12 158.858C197.501 158.858 198.62 157.739 198.62 156.358C198.62 154.978 197.501 153.858 196.12 153.858C194.739 153.858 193.62 154.978 193.62 156.358C193.62 157.739 194.739 158.858 196.12 158.858Z" fill="#FCF152"/>
<path d="M345.436 160.107V206.336C345.436 250.308 309.763 285.98 265.792 285.98C221.82 285.98 186.147 250.308 186.147 206.336V160.107H345.436Z" fill="#6480F8"/>
<path d="M186.97 160H344.97M186.97 198H344.97M192.97 238H337.97" stroke="black" stroke-width="8" stroke-miterlimit="10" stroke-linejoin="round"/>
<path d="M265.79 237.932L319.59 184.132V237.932H265.79Z" fill="#FCF152" stroke="black" stroke-width="8" stroke-miterlimit="10"/>
<path d="M211.919 197.818L265.792 143.945V197.818H211.919Z" fill="#C6FCD0" stroke="black" stroke-width="8" stroke-miterlimit="10"/>
<path d="M295.293 159.961L344.754 110.5V159.961H295.293Z" fill="#FD7962" stroke="black" stroke-width="8" stroke-miterlimit="10"/>
<path d="M187.728 71.4471C194.294 38.9769 220.624 13.6552 253.612 8.58887C276.089 48.2971 228.355 97.0384 187.728 71.4471Z" fill="#FCF152"/>
<path d="M187.728 71.4471C228.355 97.0384 276.089 48.2971 253.612 8.58887" stroke="black" stroke-width="8" stroke-miterlimit="10"/>
<path d="M265.792 7.66211C309.763 7.66211 345.436 43.3345 345.436 87.3062V206.335C345.436 250.307 309.763 285.98 265.792 285.98C221.82 285.98 186.147 250.307 186.147 206.335V87.3062C186.147 43.3345 221.82 7.66211 265.792 7.66211Z" stroke="black" stroke-width="8" stroke-miterlimit="10"/>
</svg>
